<?xml version="1.0" encoding="UTF-8" standalone="no"?>
<!-- Created with Inkscape (http://www.inkscape.org/) -->

<svg
   xmlns:dc="http://purl.org/dc/elements/1.1/"
   xmlns:cc="http://creativecommons.org/ns#"
   xmlns:rdf="http://www.w3.org/1999/02/22-rdf-syntax-ns#"
   xmlns:svg="http://www.w3.org/2000/svg"
   xmlns="http://www.w3.org/2000/svg"
   xmlns:sodipodi="http://sodipodi.sourceforge.net/DTD/sodipodi-0.dtd"
   xmlns:inkscape="http://www.inkscape.org/namespaces/inkscape"
   width="32"
   height="32"
   viewBox="0 0 8.4666665 8.4666669"
   version="1.1"
   id="svg8"
   inkscape:version="0.92.4 5da689c313, 2019-01-14"
   sodipodi:docname="view-left-panel-symbolic.svg">
  <defs
     id="defs2" />
  <sodipodi:namedview
     id="base"
     pagecolor="#ffffff"
     bordercolor="#666666"
     borderopacity="1.0"
     inkscape:pageopacity="0.0"
     inkscape:pageshadow="2"
     inkscape:zoom="44.8"
     inkscape:cx="21.089664"
     inkscape:cy="14.850535"
     inkscape:document-units="px"
     inkscape:current-layer="layer1"
     showgrid="false"
     units="px"
     inkscape:window-width="3840"
     inkscape:window-height="2031"
     inkscape:window-x="0"
     inkscape:window-y="55"
     inkscape:window-maximized="1" />
  <metadata
     id="metadata5">
    <rdf:RDF>
      <cc:Work
         rdf:about="">
        <dc:format>image/svg+xml</dc:format>
        <dc:type
           rdf:resource="http://purl.org/dc/dcmitype/StillImage" />
        <dc:title></dc:title>
      </cc:Work>
    </rdf:RDF>
  </metadata>
  <g
     inkscape:label="Layer 1"
     inkscape:groupmode="layer"
     id="layer1"
     transform="translate(0,-288.53332)">
    <path
       id="rect17"
       style="fill:#000000;stroke-width:0.30868053"
       d="m 7.9374984,289.18608 c 0,-0.0686 -0.055,-0.12359 -0.12359,-0.12359 H 0.65275839 c -0.0686,0 -0.12359,0.055 -0.12359,0.12359 v 7.16115 c 0,0.0686 0.0549,0.12359 0.12359,0.12359 H 7.8139084 c 0.0686,0 0.12359,-0.055 0.12359,-0.12359 z m -0.61736,0.59686 v 5.96743 c 0,0.0572 -0.0458,0.10309 -0.10313,0.10309 h -5.96742 c -0.0572,0 -0.10314,-0.0459 -0.10314,-0.10309 v -5.96743 c 0,-0.0572 0.046,-0.10309 0.10314,-0.10309 h 5.96742 c 0.0572,0 0.10313,0.0459 0.10313,0.10309 z m -4.32152,0.94683 v 4.07377 c 0,0.0686 -0.0553,0.12388 -0.12389,0.12388 h -0.67828 c -0.0686,0 -0.12387,-0.0553 -0.12387,-0.12388 v -4.07377 c 0,-0.0686 0.0553,-0.12388 0.12387,-0.12388 h 0.67828 c 0.0686,0 0.12389,0.0553 0.12389,0.12388 z"
       inkscape:connector-curvature="0" />
  </g>
</svg>
