<?xml version="1.0" encoding="UTF-8" standalone="no"?>
<!-- Created with Inkscape (http://www.inkscape.org/) -->

<svg
   xmlns:dc="http://purl.org/dc/elements/1.1/"
   xmlns:cc="http://creativecommons.org/ns#"
   xmlns:rdf="http://www.w3.org/1999/02/22-rdf-syntax-ns#"
   xmlns:svg="http://www.w3.org/2000/svg"
   xmlns="http://www.w3.org/2000/svg"
   xmlns:sodipodi="http://sodipodi.sourceforge.net/DTD/sodipodi-0.dtd"
   xmlns:inkscape="http://www.inkscape.org/namespaces/inkscape"
   width="24"
   height="24"
   viewBox="0 0 6.48 6.48"
   version="1.1"
   id="svg8"
   inkscape:version="0.92.5 (2060ec1f9f, 2020-04-08)"
   sodipodi:docname="view-bottom-panel-symbolic.svg">
  <defs
     id="defs2" />
  <sodipodi:namedview
     id="base"
     pagecolor="#232323"
     bordercolor="#666666"
     borderopacity="1.0"
     inkscape:pageopacity="1"
     inkscape:pageshadow="2"
     inkscape:zoom="22.4"
     inkscape:cx="11.09301"
     inkscape:cy="9.8842527"
     inkscape:document-units="px"
     inkscape:current-layer="g4777"
     showgrid="false"
     units="px"
     scale-x="0.27"
     inkscape:window-width="1920"
     inkscape:window-height="1027"
     inkscape:window-x="0"
     inkscape:window-y="27"
     inkscape:window-maximized="1" />
  <metadata
     id="metadata5">
    <rdf:RDF>
      <cc:Work
         rdf:about="">
        <dc:format>image/svg+xml</dc:format>
        <dc:type
           rdf:resource="http://purl.org/dc/dcmitype/StillImage" />
        <dc:title></dc:title>
      </cc:Work>
    </rdf:RDF>
  </metadata>
  <g
     inkscape:label="Layer 1"
     inkscape:groupmode="layer"
     id="layer1"
     transform="translate(0,-290.64999)">
    <g
       id="g4777"
       transform="translate(0,2.54571)">
      <path
         id="rect4744"
         d="m 1.215,288.64428 c -0.37395007,0 -0.675,0.30105 -0.675,0.675 v 4.05 c 0,0.37395 0.30104993,0.675 0.675,0.675 h 4.05 c 0.37395,0 0.675,-0.30105 0.675,-0.675 v -4.05 c 0,-0.37395 -0.30105,-0.675 -0.675,-0.675 z m 0.135,0.52576 h 3.78 c 0.14958,0 0.27,0.12042 0.27,0.27 v 3.78 c 0,0.14958 -0.12042,0.27 -0.27,0.27 H 1.35 c -0.14958,0 -0.27,-0.12042 -0.27,-0.27 v -3.78 c 0,-0.14958 0.12042,-0.27 0.27,-0.27 z"
         style="fill:#f2f2f2;fill-opacity:1;stroke:none;stroke-width:6.75;stroke-miterlimit:4;stroke-dasharray:none;stroke-dashoffset:0;stroke-opacity:1"
         inkscape:connector-curvature="0" />
      <path
         inkscape:connector-curvature="0"
         id="rect4754"
         d="m 1.8514286,292.50142 h 2.7771428 c 0.1282115,0 0.2314286,0.10322 0.2314286,0.23143 0,0.12821 -0.1032171,0.23143 -0.2314286,0.23143 H 1.8514286 C 1.7232171,292.96428 1.62,292.86106 1.62,292.73285 c 0,-0.12821 0.1032171,-0.23143 0.2314286,-0.23143 z"
         style="fill:#f2f2f2;fill-opacity:1;stroke:none;stroke-width:5.78571415;stroke-miterlimit:4;stroke-dasharray:none;stroke-dashoffset:0;stroke-opacity:1" />
    </g>
  </g>
</svg>
