<?xml version="1.0" encoding="UTF-8" standalone="no"?>
<!-- Created with Inkscape (http://www.inkscape.org/) -->

<svg
   xmlns:dc="http://purl.org/dc/elements/1.1/"
   xmlns:cc="http://creativecommons.org/ns#"
   xmlns:rdf="http://www.w3.org/1999/02/22-rdf-syntax-ns#"
   xmlns:svg="http://www.w3.org/2000/svg"
   xmlns="http://www.w3.org/2000/svg"
   xmlns:sodipodi="http://sodipodi.sourceforge.net/DTD/sodipodi-0.dtd"
   xmlns:inkscape="http://www.inkscape.org/namespaces/inkscape"
   width="128"
   height="128"
   viewBox="0 0 33.866666 33.866668"
   version="1.1"
   id="svg8"
   inkscape:version="0.92.4 5da689c313, 2019-01-14"
   sodipodi:docname="text-x-cpp.svg">
  <defs
     id="defs2" />
  <sodipodi:namedview
     id="base"
     pagecolor="#ffffff"
     bordercolor="#666666"
     borderopacity="1.0"
     inkscape:pageopacity="0.0"
     inkscape:pageshadow="2"
     inkscape:zoom="1.979899"
     inkscape:cx="-85.727838"
     inkscape:cy="50.705232"
     inkscape:document-units="px"
     inkscape:current-layer="text9354"
     showgrid="false"
     units="px"
     inkscape:window-width="1920"
     inkscape:window-height="1016"
     inkscape:window-x="0"
     inkscape:window-y="27"
     inkscape:window-maximized="1" />
  <metadata
     id="metadata5">
    <rdf:RDF>
      <cc:Work
         rdf:about="">
        <dc:format>image/svg+xml</dc:format>
        <dc:type
           rdf:resource="http://purl.org/dc/dcmitype/StillImage" />
        <dc:title />
      </cc:Work>
    </rdf:RDF>
  </metadata>
  <g
     inkscape:label="Layer 1"
     inkscape:groupmode="layer"
     id="layer1"
     transform="translate(0,-263.13332)">
    <g
       aria-label="C++"
       style="font-style:normal;font-variant:normal;font-weight:normal;font-stretch:normal;font-size:14.55621052px;line-height:1.25;font-family:'Fira Code';-inkscape-font-specification:'Fira Code';letter-spacing:0px;word-spacing:0px;fill:#844b90;fill-opacity:1;stroke:none;stroke-width:0.99246895"
       id="text9354">
      <path
         d="m 14.112146,288.74388 q -1.157994,0.71929 -2.414307,1.08547 -1.256316,0.36618 -2.6218739,0.36618 -4.0748282,0 -6.4563641,-2.72021 -2.38153471,-2.73329 -2.38153471,-7.40214 0,-4.68189 2.38153471,-7.40212 2.3815359,-2.73329 6.4563641,-2.73329 1.3655579,0 2.6218739,0.36619 1.256313,0.36617 2.414307,1.08546 v 4.0411 q -1.168917,-0.9547 -2.305063,-1.39936 -1.136145,-0.44463 -2.392459,-0.44463 -2.2504431,0 -3.5395289,1.72629 -1.2890881,1.72627 -1.2890881,4.76036 0,3.02103 1.2890881,4.74732 1.2890858,1.72627 3.5395289,1.72627 1.256314,0 2.392459,-0.44463 1.136146,-0.44465 2.305063,-1.39935 z"
         style="font-style:normal;font-variant:normal;font-weight:bold;font-stretch:normal;font-family:sans-serif;-inkscape-font-specification:'sans-serif Bold';fill:#984c93;fill-opacity:1;stroke-width:1.66904807"
         id="path9356"
         inkscape:connector-curvature="0" />
      <g
         id="g9365"
         transform="matrix(0.87984039,0,0,0.85032689,3.9263056,41.292894)"
         style="fill:#984c93;fill-opacity:1">
        <g
           id="g9369"
           transform="matrix(1.1245312,0,0,1.1245312,-4.1515589,-34.96866)"
           style="fill:#984c93;fill-opacity:1">
          <path
             inkscape:connector-curvature="0"
             d="m 19.763136,276.23926 v 3.32406 h 3.30987 v 2.47777 h -3.30987 v 3.32424 l -2.491969,6e-5 v -3.32425 l -3.310007,-5e-5 v -2.47777 h 3.310007 v -3.32406 z"
             style="font-style:normal;font-variant:normal;font-weight:bold;font-stretch:normal;font-family:sans-serif;-inkscape-font-specification:'sans-serif Bold';fill:#984c93;fill-opacity:1;stroke-width:0.99246895"
             id="path9358"
             sodipodi:nodetypes="ccccccccccccc" />
          <path
             sodipodi:nodetypes="ccccccccccccc"
             id="path9371"
             style="font-style:normal;font-variant:normal;font-weight:bold;font-stretch:normal;font-family:sans-serif;-inkscape-font-specification:'sans-serif Bold';fill:#984c93;fill-opacity:1;stroke-width:0.99246895"
             d="m 29.696365,276.23926 v 3.32406 h 3.30987 v 2.47777 h -3.30987 v 3.32424 l -2.491969,6e-5 v -3.32425 l -3.310007,-5e-5 v -2.47777 h 3.310007 v -3.32406 z"
             inkscape:connector-curvature="0" />
        </g>
      </g>
    </g>
  </g>
</svg>
