<?xml version="1.0" encoding="UTF-8" standalone="no"?>
<!-- Created with Inkscape (http://www.inkscape.org/) -->

<svg
   xmlns:dc="http://purl.org/dc/elements/1.1/"
   xmlns:cc="http://creativecommons.org/ns#"
   xmlns:rdf="http://www.w3.org/1999/02/22-rdf-syntax-ns#"
   xmlns:svg="http://www.w3.org/2000/svg"
   xmlns="http://www.w3.org/2000/svg"
   xmlns:sodipodi="http://sodipodi.sourceforge.net/DTD/sodipodi-0.dtd"
   xmlns:inkscape="http://www.inkscape.org/namespaces/inkscape"
   width="128"
   height="128"
   viewBox="0 0 33.866666 33.866668"
   version="1.1"
   id="svg2126"
   inkscape:version="0.92.4 5da689c313, 2019-01-14"
   sodipodi:docname="text-x-git-symbolic.svg">
  <defs
     id="defs2120" />
  <sodipodi:namedview
     id="base"
     pagecolor="#ffffff"
     bordercolor="#666666"
     borderopacity="1.0"
     inkscape:pageopacity="0.0"
     inkscape:pageshadow="2"
     inkscape:zoom="22.627417"
     inkscape:cx="77.944384"
     inkscape:cy="81.538859"
     inkscape:document-units="px"
     inkscape:current-layer="layer1"
     showgrid="false"
     units="px"
     inkscape:window-width="3840"
     inkscape:window-height="2010"
     inkscape:window-x="0"
     inkscape:window-y="0"
     inkscape:window-maximized="1" />
  <metadata
     id="metadata2123">
    <rdf:RDF>
      <cc:Work
         rdf:about="">
        <dc:format>image/svg+xml</dc:format>
        <dc:type
           rdf:resource="http://purl.org/dc/dcmitype/StillImage" />
        <dc:title></dc:title>
      </cc:Work>
    </rdf:RDF>
  </metadata>
  <g
     inkscape:label="Layer 1"
     inkscape:groupmode="layer"
     id="layer1"
     transform="translate(0,-263.13332)">
    <path
       style="fill:#333333;fill-opacity:1;stroke:none;stroke-width:0.19460651;stroke-miterlimit:4;stroke-dasharray:none;stroke-opacity:1"
       d="m 16.933335,265.77919 c -0.355009,0 -0.709913,0.13594 -0.981935,0.40796 l -3.796997,3.79702 3.830632,3.83119 a 1.3888144,1.3888203 0 0 1 0.359139,-0.0478 1.3888144,1.3888203 0 0 1 1.388814,1.38882 1.3888144,1.3888203 0 0 1 -0.04828,0.35805 l 4.192483,4.19305 a 1.3888143,1.3888202 0 0 1 0.359139,-0.0478 1.3888143,1.3888202 0 0 1 1.388815,1.38882 1.3888143,1.3888202 0 0 1 -1.388815,1.38881 1.3888143,1.3888202 0 0 1 -1.388814,-1.38881 1.3888143,1.3888202 0 0 1 0.04828,-0.35806 l -3.917976,-3.91799 v 8.93402 a 1.3888141,1.38882 0 0 1 0.755168,1.2342 1.3888141,1.38882 0 0 1 -1.388814,1.38882 1.3888141,1.38882 0 0 1 -1.388815,-1.38882 1.3888141,1.38882 0 0 1 0.633647,-1.16531 v -9.45482 a 1.3888144,1.3888203 0 0 1 -0.633647,-1.16422 1.3888144,1.3888203 0 0 1 0.04828,-0.35805 l -3.831717,-3.83174 -8.1180541,8.11809 c -0.5440458,0.54404 -0.5440502,1.41983 0,1.96388 l 12.8975291,12.89758 c 0.54405,0.54404 1.419825,0.54404 1.96387,0 l 12.897532,-12.89754 c 0.544045,-0.54406 0.544051,-1.41983 0,-1.96388 L 17.91527,266.18715 c -0.272025,-0.27202 -0.626927,-0.40796 -0.981935,-0.40796 z"
       id="rect2231"
       inkscape:connector-curvature="0" />
  </g>
</svg>
