<?xml version="1.0" encoding="UTF-8" standalone="no"?>
<!-- Created with Inkscape (http://www.inkscape.org/) -->

<svg
   xmlns:dc="http://purl.org/dc/elements/1.1/"
   xmlns:cc="http://creativecommons.org/ns#"
   xmlns:rdf="http://www.w3.org/1999/02/22-rdf-syntax-ns#"
   xmlns:svg="http://www.w3.org/2000/svg"
   xmlns="http://www.w3.org/2000/svg"
   xmlns:sodipodi="http://sodipodi.sourceforge.net/DTD/sodipodi-0.dtd"
   xmlns:inkscape="http://www.inkscape.org/namespaces/inkscape"
   width="128"
   height="128"
   viewBox="0 0 33.866666 33.866668"
   version="1.1"
   id="svg8"
   sodipodi:docname="text-x-js.svg"
   inkscape:version="0.92.4 5da689c313, 2019-01-14">
  <defs
     id="defs2" />
  <sodipodi:namedview
     id="base"
     pagecolor="#ffffff"
     bordercolor="#666666"
     borderopacity="1.0"
     inkscape:pageopacity="0.0"
     inkscape:pageshadow="2"
     inkscape:zoom="2.8"
     inkscape:cx="-61.914172"
     inkscape:cy="23.680885"
     inkscape:document-units="px"
     inkscape:current-layer="g4757"
     showgrid="false"
     units="px"
     inkscape:window-width="1920"
     inkscape:window-height="1016"
     inkscape:window-x="0"
     inkscape:window-y="27"
     inkscape:window-maximized="1" />
  <metadata
     id="metadata5">
    <rdf:RDF>
      <cc:Work
         rdf:about="">
        <dc:format>image/svg+xml</dc:format>
        <dc:type
           rdf:resource="http://purl.org/dc/dcmitype/StillImage" />
        <dc:title />
      </cc:Work>
    </rdf:RDF>
  </metadata>
  <g
     inkscape:label="Layer 1"
     inkscape:groupmode="layer"
     id="layer1"
     transform="translate(0,-263.13332)">
    <g
       id="g4757"
       transform="translate(73.030728,0.20113493)">
      <path
         style="fill:#f8bc78;fill-opacity:1;stroke:none;stroke-width:0.49693546;stroke-miterlimit:4;stroke-dasharray:none;stroke-dashoffset:0;stroke-opacity:1"
         d="M 20.169922 0.24804688 C 9.1337503 0.24804688 0.24804688 9.133739 0.24804688 20.169922 L 0.24804688 107.83008 C 0.24804688 118.86622 9.1337503 127.75195 20.169922 127.75195 L 107.83008 127.75195 C 118.86625 127.75195 127.75195 118.86622 127.75195 107.83008 L 127.75195 20.169922 C 127.75195 9.133739 118.86625 0.24804688 107.83008 0.24804688 L 20.169922 0.24804688 z M 92.984375 49.689453 C 95.922673 49.689453 98.945263 49.917223 102.05078 50.371094 C 105.1563 50.801103 108.36894 51.457917 111.68945 52.341797 L 111.68945 63.664062 C 108.75116 62.350173 105.88481 61.358329 103.08984 60.689453 C 100.29488 60.020578 97.654336 59.6875 95.169922 59.6875 C 91.873295 59.6875 89.437976 60.141061 87.861328 61.048828 C 86.284681 61.956595 85.496094 63.366263 85.496094 65.277344 C 85.496094 66.710667 86.021169 67.832311 87.072266 68.644531 C 88.147254 69.43284 90.081987 70.114171 92.876953 70.6875 L 98.753906 71.871094 C 104.70217 73.065525 108.93115 74.87977 111.43945 77.316406 C 113.94776 79.753042 115.20117 83.217923 115.20117 87.708984 C 115.20117 93.609457 113.44522 98.004 109.93359 100.89453 C 106.44586 103.76115 101.10649 105.19531 93.916016 105.19531 C 90.523834 105.19531 87.119196 104.87155 83.703125 104.22656 C 80.287054 103.58157 76.871149 102.62742 73.455078 101.36133 L 73.455078 89.714844 C 76.871149 91.530378 80.168519 92.904283 83.345703 93.835938 C 86.546776 94.743704 89.627657 95.197266 92.589844 95.197266 C 95.599809 95.197266 97.905323 94.696673 99.505859 93.693359 C 101.1064 92.690046 101.90625 91.255885 101.90625 89.392578 C 101.90625 87.720364 101.35669 86.431204 100.25781 85.523438 C 99.182829 84.61567 97.022289 83.802586 93.773438 83.085938 L 88.433594 81.904297 C 83.082546 80.757639 79.166055 78.930171 76.681641 76.421875 C 74.221115 73.913579 72.990234 70.531467 72.990234 66.279297 C 72.990234 60.952128 74.710431 56.85688 78.150391 53.990234 C 81.590348 51.123614 86.53445 49.689453 92.984375 49.689453 z M 47.154297 50.65625 L 60.949219 50.65625 L 60.949219 98.958984 C 60.949219 105.6239 59.134974 110.60571 55.503906 113.90234 C 51.896728 117.19895 46.4256 118.84766 39.091797 118.84766 L 36.296875 118.84766 L 36.296875 108.41992 L 38.447266 108.41992 C 41.313899 108.41992 43.476389 107.62006 44.933594 106.01953 C 46.414687 104.419 47.154297 102.0645 47.154297 98.958984 L 47.154297 50.65625 z "
         transform="matrix(0.26458334,0,0,0.26458334,-73.030728,262.93219)"
         id="rect4748" />
    </g>
  </g>
</svg>
