<?xml version="1.0" encoding="UTF-8" standalone="no"?>
<!-- Created with Inkscape (http://www.inkscape.org/) -->

<svg
   xmlns:dc="http://purl.org/dc/elements/1.1/"
   xmlns:cc="http://creativecommons.org/ns#"
   xmlns:rdf="http://www.w3.org/1999/02/22-rdf-syntax-ns#"
   xmlns:svg="http://www.w3.org/2000/svg"
   xmlns="http://www.w3.org/2000/svg"
   xmlns:sodipodi="http://sodipodi.sourceforge.net/DTD/sodipodi-0.dtd"
   xmlns:inkscape="http://www.inkscape.org/namespaces/inkscape"
   width="24"
   height="24"
   viewBox="0 0 6.48 6.48"
   version="1.1"
   id="svg8"
   inkscape:version="0.92.4 5da689c313, 2019-01-14"
   sodipodi:docname="text-x-meson.svg">
  <defs
     id="defs2" />
  <sodipodi:namedview
     id="base"
     pagecolor="#232323"
     bordercolor="#666666"
     borderopacity="1.0"
     inkscape:pageopacity="1"
     inkscape:pageshadow="2"
     inkscape:zoom="22.4"
     inkscape:cx="-0.7138878"
     inkscape:cy="11.824336"
     inkscape:document-units="px"
     inkscape:current-layer="layer1"
     showgrid="false"
     units="px"
     scale-x="0.27"
     inkscape:window-width="1920"
     inkscape:window-height="1016"
     inkscape:window-x="0"
     inkscape:window-y="27"
     inkscape:window-maximized="1" />
  <metadata
     id="metadata5">
    <rdf:RDF>
      <cc:Work
         rdf:about="">
        <dc:format>image/svg+xml</dc:format>
        <dc:type
           rdf:resource="http://purl.org/dc/dcmitype/StillImage" />
        <dc:title></dc:title>
      </cc:Work>
    </rdf:RDF>
  </metadata>
  <g
     inkscape:label="Layer 1"
     inkscape:groupmode="layer"
     id="layer1"
     transform="translate(0,-290.64999)">
    <path
       style="stroke-width:0.00620096;fill:#39207c;fill-opacity:1"
       d="m 2.740826,291.01925 c -1.519235,1.06657 -2.52379,2.82764 -2.697416,4.72513 L 0,296.22186 l 0.52088,0.24183 c 1.029359,0.48368 2.350163,0.70691 3.441531,0.57669 0.725513,-0.0806 1.544039,-0.31004 2.108326,-0.58289 L 6.48,296.25286 6.44279,295.69478 c -0.09921,-1.45723 -0.787521,-2.93306 -1.872689,-4.02443 -0.45267,-0.44646 -1.147177,-0.96734 -1.302201,-0.96734 -0.03721,0 -0.279043,0.14262 -0.527081,0.31624 z m 1.761072,2.23855 c 0.06821,0.093 0.09922,0.27904 0.09922,0.54568 0,0.47748 -0.210833,0.97976 -0.595292,1.42622 -0.167426,0.18603 -0.241837,0.33486 -0.241837,0.46508 0,0.61389 -1.116173,-0.16123 -1.525436,-1.05417 -0.09922,-0.22323 -0.179827,-0.44026 -0.179827,-0.48987 0,-0.0496 -0.06201,-0.0992 -0.136422,-0.11162 -0.223234,-0.031 -0.217033,-0.26664 0,-0.47747 0.359656,-0.33485 1.327005,-0.48988 1.959503,-0.31005 0.198431,0.0558 0.254239,0.0496 0.334852,-0.031 0.13022,-0.13022 0.173626,-0.12401 0.285244,0.0372 z"
       id="path6"
       inkscape:connector-curvature="0" />
    <path
       style="fill:#ffffff;fill-opacity:1;stroke:none;stroke-width:4;stroke-miterlimit:4;stroke-dasharray:none;stroke-dashoffset:0;stroke-opacity:1"
       d="M 16.171875 9.1855469 C 16.019722 9.1654497 15.858336 9.2803362 15.617188 9.5214844 C 15.318621 9.8200029 15.111883 9.8414323 14.376953 9.6347656 C 12.034368 8.9687286 8.4511999 9.5430179 7.1191406 10.783203 C 6.3153147 11.564055 6.292348 12.43792 7.1191406 12.552734 C 7.3947406 12.598734 7.625 12.78114 7.625 12.964844 C 7.625 13.148584 7.9235341 13.952519 8.2910156 14.779297 C 9.8068045 18.086482 13.941406 20.95726 13.941406 18.683594 C 13.941406 18.201297 14.215841 17.649938 14.835938 16.960938 C 16.25986 15.307382 17.041016 13.448132 17.041016 11.679688 C 17.041016 10.692132 16.926458 10.002648 16.673828 9.6582031 C 16.467128 9.3596661 16.324028 9.2056441 16.171875 9.1855469 z "
       id="rect9279"
       transform="matrix(0.27,0,0,0.27,0,290.64999)" />
  </g>
</svg>
