<?xml version="1.0" encoding="UTF-8" standalone="no"?>
<!-- Created with Inkscape (http://www.inkscape.org/) -->

<svg
   xmlns:dc="http://purl.org/dc/elements/1.1/"
   xmlns:cc="http://creativecommons.org/ns#"
   xmlns:rdf="http://www.w3.org/1999/02/22-rdf-syntax-ns#"
   xmlns:svg="http://www.w3.org/2000/svg"
   xmlns="http://www.w3.org/2000/svg"
   xmlns:sodipodi="http://sodipodi.sourceforge.net/DTD/sodipodi-0.dtd"
   xmlns:inkscape="http://www.inkscape.org/namespaces/inkscape"
   width="24"
   height="24"
   viewBox="0 0 6.48 6.48"
   version="1.1"
   id="svg8"
   inkscape:version="0.92.4 5da689c313, 2019-01-14"
   sodipodi:docname="text-x-git.svg">
  <defs
     id="defs2" />
  <sodipodi:namedview
     id="base"
     pagecolor="#232323"
     bordercolor="#666666"
     borderopacity="1.0"
     inkscape:pageopacity="1"
     inkscape:pageshadow="2"
     inkscape:zoom="22.4"
     inkscape:cx="13.030807"
     inkscape:cy="10.039728"
     inkscape:document-units="px"
     inkscape:current-layer="layer1"
     showgrid="false"
     units="px"
     scale-x="0.27"
     inkscape:window-width="1920"
     inkscape:window-height="1016"
     inkscape:window-x="0"
     inkscape:window-y="27"
     inkscape:window-maximized="1" />
  <metadata
     id="metadata5">
    <rdf:RDF>
      <cc:Work
         rdf:about="">
        <dc:format>image/svg+xml</dc:format>
        <dc:type
           rdf:resource="http://purl.org/dc/dcmitype/StillImage" />
        <dc:title></dc:title>
      </cc:Work>
    </rdf:RDF>
  </metadata>
  <g
     inkscape:label="Layer 1"
     inkscape:groupmode="layer"
     id="layer1"
     transform="translate(0,-290.64999)">
    <g
       style="fill:#f05033;fill-opacity:1;stroke:none"
       transform="matrix(0.00169127,0,0,-0.00169132,0.00261619,297.13035)"
       id="g6">
      <path
         inkscape:connector-curvature="0"
         d="m 1794,3805 c -34,-17 -107,-82 -234,-210 l -185,-185 220,-220 220,-220 75,6 c 97,8 170,-17 234,-82 65,-64 90,-137 82,-234 l -6,-75 206,-206 206,-207 83,6 c 73,4 89,2 137,-20 184,-84 232,-302 100,-449 -67,-75 -110,-94 -212,-94 -68,0 -93,5 -125,22 -51,27 -119,100 -140,150 -19,43 -24,127 -12,188 l 8,40 -201,200 -200,200 v -531 -531 l 26,-14 c 41,-22 101,-96 118,-146 38,-110 8,-222 -80,-302 -96,-88 -207,-103 -321,-45 -134,69 -192,232 -130,367 26,58 83,119 128,139 l 29,13 v 531 532 l -28,11 c -42,18 -108,89 -132,144 -24,53 -28,144 -10,191 11,30 9,32 -212,253 L 1215,3250 632,2668 C 190,2225 44,2073 25,2036 c -37,-74 -35,-173 4,-241 20,-33 314,-334 883,-902 660,-659 863,-857 898,-872 55,-25 155,-28 208,-6 51,22 1766,1733 1793,1790 26,55 25,156 -2,215 -15,35 -213,238 -872,898 -568,569 -869,863 -902,883 -68,39 -167,41 -241,4 z"
         id="path4"
         style="fill:#f05033;fill-opacity:1" />
    </g>
  </g>
</svg>
