<?xml version="1.0" encoding="UTF-8" standalone="no"?>
<!-- Created with Inkscape (http://www.inkscape.org/) -->

<svg
   xmlns:dc="http://purl.org/dc/elements/1.1/"
   xmlns:cc="http://creativecommons.org/ns#"
   xmlns:rdf="http://www.w3.org/1999/02/22-rdf-syntax-ns#"
   xmlns:svg="http://www.w3.org/2000/svg"
   xmlns="http://www.w3.org/2000/svg"
   xmlns:sodipodi="http://sodipodi.sourceforge.net/DTD/sodipodi-0.dtd"
   xmlns:inkscape="http://www.inkscape.org/namespaces/inkscape"
   width="48"
   height="48"
   viewBox="0 0 12.7 12.7"
   version="1.1"
   id="svg904"
   sodipodi:docname="text-x-git-symbolic.svg"
   inkscape:version="0.92.4 5da689c313, 2019-01-14">
  <defs
     id="defs898" />
  <sodipodi:namedview
     id="base"
     pagecolor="#ffffff"
     bordercolor="#666666"
     borderopacity="1.0"
     inkscape:pageopacity="0.0"
     inkscape:pageshadow="2"
     inkscape:zoom="8"
     inkscape:cx="51.287613"
     inkscape:cy="15.141641"
     inkscape:document-units="mm"
     inkscape:current-layer="layer1"
     showgrid="false"
     units="px"
     inkscape:window-width="2048"
     inkscape:window-height="1088"
     inkscape:window-x="0"
     inkscape:window-y="27"
     inkscape:window-maximized="1" />
  <metadata
     id="metadata901">
    <rdf:RDF>
      <cc:Work
         rdf:about="">
        <dc:format>image/svg+xml</dc:format>
        <dc:type
           rdf:resource="http://purl.org/dc/dcmitype/StillImage" />
        <dc:title></dc:title>
      </cc:Work>
    </rdf:RDF>
  </metadata>
  <g
     inkscape:label="Layer 1"
     inkscape:groupmode="layer"
     id="layer1"
     transform="translate(0,-284.29998)">
    <path
       style="fill:#000000;stroke-width:0.72475761"
       d="M 24.001953 0 C 23.631429 2.8421709e-14 23.260477 0.14186677 22.976562 0.42578125 L 17.349609 6.0527344 L 20.542969 9.2460938 A 3.75 3.75 0 0 1 21.689453 9.0625 A 3.75 3.75 0 0 1 25.439453 12.8125 A 3.75 3.75 0 0 1 25.255859 13.958984 L 31.888672 20.591797 A 3.75 3.75 0 0 1 33.257812 20.332031 A 3.75 3.75 0 0 1 37.007812 24.082031 A 3.75 3.75 0 0 1 33.257812 27.832031 A 3.75 3.75 0 0 1 29.507812 24.082031 A 3.75 3.75 0 0 1 29.769531 22.714844 L 23.265625 16.210938 A 3.75 3.75 0 0 1 23.1875 16.246094 L 23.1875 29.052734 A 3.75 3.75 0 0 1 25.439453 32.488281 A 3.75 3.75 0 0 1 21.689453 36.238281 A 3.75 3.75 0 0 1 17.939453 32.488281 A 3.75 3.75 0 0 1 20.1875 29.056641 L 20.1875 16.246094 A 3.75 3.75 0 0 1 17.939453 12.8125 A 3.75 3.75 0 0 1 18.291016 11.236328 L 15.228516 8.1738281 L 0.42773438 22.974609 C -0.14009459 23.542438 -0.14009459 24.457562 0.42773438 25.025391 L 22.976562 47.574219 C 23.544391 48.142048 24.457562 48.142048 25.025391 47.574219 L 47.574219 25.025391 C 48.142048 24.457562 48.142048 23.542438 47.574219 22.974609 L 25.025391 0.42578125 C 24.741476 0.14186677 24.372477 -2.8421709e-14 24.001953 0 z "
       transform="matrix(0.26458333,0,0,0.26458333,0,284.29998)"
       id="rect1449" />
  </g>
</svg>
