<?xml version="1.0" encoding="UTF-8" standalone="no"?>
<!-- Created with Inkscape (http://www.inkscape.org/) -->

<svg
   xmlns:dc="http://purl.org/dc/elements/1.1/"
   xmlns:cc="http://creativecommons.org/ns#"
   xmlns:rdf="http://www.w3.org/1999/02/22-rdf-syntax-ns#"
   xmlns:svg="http://www.w3.org/2000/svg"
   xmlns="http://www.w3.org/2000/svg"
   xmlns:sodipodi="http://sodipodi.sourceforge.net/DTD/sodipodi-0.dtd"
   xmlns:inkscape="http://www.inkscape.org/namespaces/inkscape"
   width="128"
   height="128"
   viewBox="0 0 33.866666 33.866668"
   version="1.1"
   id="svg8"
   sodipodi:docname="text-x-js.svg"
   inkscape:version="0.92.4 5da689c313, 2019-01-14">
  <defs
     id="defs2" />
  <sodipodi:namedview
     id="base"
     pagecolor="#ffffff"
     bordercolor="#666666"
     borderopacity="1.0"
     inkscape:pageopacity="0.0"
     inkscape:pageshadow="2"
     inkscape:zoom="11.2"
     inkscape:cx="61.283659"
     inkscape:cy="65.138737"
     inkscape:document-units="px"
     inkscape:current-layer="layer1"
     showgrid="false"
     units="px"
     inkscape:window-width="3840"
     inkscape:window-height="2010"
     inkscape:window-x="0"
     inkscape:window-y="0"
     inkscape:window-maximized="1" />
  <metadata
     id="metadata5">
    <rdf:RDF>
      <cc:Work
         rdf:about="">
        <dc:format>image/svg+xml</dc:format>
        <dc:type
           rdf:resource="http://purl.org/dc/dcmitype/StillImage" />
        <dc:title></dc:title>
      </cc:Work>
    </rdf:RDF>
  </metadata>
  <g
     inkscape:label="Layer 1"
     inkscape:groupmode="layer"
     id="layer1"
     transform="translate(0,-263.13332)">
    <path
       style="fill:#f8bc78;fill-opacity:1;stroke:none;stroke-width:0;stroke-miterlimit:4;stroke-dasharray:none;stroke-opacity:1"
       d="M 13 10 C 11.338 10 10 11.338 10 13 L 10 115 C 10 116.662 11.338 118 13 118 L 115 118 C 116.662 118 118 116.662 118 115 L 118 13 C 118 11.338 116.662 10 115 10 L 13 10 z M 90.851562 57.125 C 97.56832 57.125 102.42593 59.196782 106.57031 62.769531 L 102.85547 66.771484 C 99.354182 63.69888 95.208826 62.339844 91.064453 62.339844 C 85.633873 62.339844 81.205078 64.698475 81.205078 69.628906 C 81.205078 73.844705 84.205821 75.987837 93.566406 78.703125 C 101.28353 80.918193 108 84.133536 108 93.494141 C 108 101.99725 101.4269 107.92773 89.994141 107.92773 C 82.777197 107.92773 76.845541 105.71435 72.701172 101.71289 L 76.416016 97.496094 C 79.845846 100.71153 84.062242 102.7832 90.064453 102.7832 C 96.066653 102.7832 101.49805 99.853248 101.49805 93.636719 C 101.49805 88.849153 99.210965 86.491905 90.779297 84.0625 C 80.989996 81.204232 74.916016 77.632298 74.916016 69.84375 C 74.916016 62.412443 81.419536 57.125 90.851562 57.125 z M 41.503906 57.910156 L 62.296875 57.910156 L 62.296875 90.779297 C 62.296875 98.99667 58.438362 108 45.433594 108 C 40.646119 108 35.85856 106.42767 32 103.49805 L 34.714844 99.425781 C 38.930685 102.06967 42.503144 102.7832 45.361328 102.7832 C 52.220993 102.7832 56.080078 98.13986 56.080078 90.494141 L 56.080078 62.984375 L 41.503906 62.984375 L 41.503906 57.910156 z "
       transform="matrix(0.26458334,0,0,0.26458334,0,263.13332)"
       id="rect815" />
  </g>
</svg>
