<?xml version="1.0" encoding="UTF-8" standalone="no"?>
<!-- Created with Inkscape (http://www.inkscape.org/) -->

<svg
   xmlns:dc="http://purl.org/dc/elements/1.1/"
   xmlns:cc="http://creativecommons.org/ns#"
   xmlns:rdf="http://www.w3.org/1999/02/22-rdf-syntax-ns#"
   xmlns:svg="http://www.w3.org/2000/svg"
   xmlns="http://www.w3.org/2000/svg"
   xmlns:sodipodi="http://sodipodi.sourceforge.net/DTD/sodipodi-0.dtd"
   xmlns:inkscape="http://www.inkscape.org/namespaces/inkscape"
   width="128"
   height="128"
   viewBox="0 0 33.866666 33.866668"
   version="1.1"
   id="svg2126"
   inkscape:version="0.92.4 5da689c313, 2019-01-14"
   sodipodi:docname="text-x-git-symbolic.svg">
  <defs
     id="defs2120" />
  <sodipodi:namedview
     id="base"
     pagecolor="#ffffff"
     bordercolor="#666666"
     borderopacity="1.0"
     inkscape:pageopacity="0.0"
     inkscape:pageshadow="2"
     inkscape:zoom="4"
     inkscape:cx="91.659295"
     inkscape:cy="73.787548"
     inkscape:document-units="px"
     inkscape:current-layer="layer1"
     showgrid="false"
     units="px"
     inkscape:window-width="1920"
     inkscape:window-height="1005"
     inkscape:window-x="0"
     inkscape:window-y="0"
     inkscape:window-maximized="1" />
  <metadata
     id="metadata2123">
    <rdf:RDF>
      <cc:Work
         rdf:about="">
        <dc:format>image/svg+xml</dc:format>
        <dc:type
           rdf:resource="http://purl.org/dc/dcmitype/StillImage" />
        <dc:title />
      </cc:Work>
    </rdf:RDF>
  </metadata>
  <g
     inkscape:label="Layer 1"
     inkscape:groupmode="layer"
     id="layer1"
     transform="translate(0,-263.13332)">
    <path
       style="fill:#333333;fill-opacity:1;stroke:none;stroke-width:0.23064508;stroke-miterlimit:4;stroke-dasharray:none;stroke-opacity:1"
       d="m 16.933337,263.13331 c -0.420752,0 -0.841379,0.16112 -1.163775,0.48351 l -4.500144,4.50018 4.540008,4.54069 a 1.6460021,1.6460139 0 0 1 0.425646,-0.0567 1.6460021,1.6460139 0 0 1 1.646001,1.64603 1.6460021,1.6460139 0 0 1 -0.05722,0.42435 l 4.968868,4.96955 a 1.646002,1.6460138 0 0 1 0.425646,-0.0566 1.646002,1.6460138 0 0 1 1.646003,1.64601 1.646002,1.6460138 0 0 1 -1.646003,1.64601 1.646002,1.6460138 0 0 1 -1.646002,-1.64601 1.646002,1.6460138 0 0 1 0.05722,-0.42437 l -4.643527,-4.64355 v 10.5885 a 1.6460017,1.6460135 0 0 1 0.895014,1.46276 1.6460017,1.6460135 0 0 1 -1.646001,1.64601 1.6460017,1.6460135 0 0 1 -1.646003,-1.64601 1.6460017,1.6460135 0 0 1 0.750989,-1.38111 v -11.20575 a 1.6460021,1.6460139 0 0 1 -0.750989,-1.37982 1.6460021,1.6460139 0 0 1 0.05722,-0.42435 l -4.541294,-4.54135 -9.62139691,9.62148 c -0.644795,0.64479 -0.6448002,1.68276 0,2.32756 L 15.769556,296.5164 c 0.6448,0.64479 1.682756,0.64479 2.32755,0 L 33.38307,281.23037 c 0.644794,-0.64481 0.644801,-1.68276 0,-2.32756 L 18.097111,263.61682 c -0.3224,-0.32239 -0.743024,-0.48351 -1.163774,-0.48351 z"
       id="rect2231"
       inkscape:connector-curvature="0" />
  </g>
</svg>
