<?xml version="1.0" encoding="UTF-8" standalone="no"?>
<svg
   xmlns:dc="http://purl.org/dc/elements/1.1/"
   xmlns:cc="http://creativecommons.org/ns#"
   xmlns:rdf="http://www.w3.org/1999/02/22-rdf-syntax-ns#"
   xmlns:svg="http://www.w3.org/2000/svg"
   xmlns="http://www.w3.org/2000/svg"
   xmlns:sodipodi="http://sodipodi.sourceforge.net/DTD/sodipodi-0.dtd"
   xmlns:inkscape="http://www.inkscape.org/namespaces/inkscape"
   id="logo_art"
   data-name="logo art"
   viewBox="0 0 24 24"
   version="1.1"
   sodipodi:docname="text-x-gitlab-symbolic.svg"
   width="24"
   height="24"
   inkscape:version="0.92.4 5da689c313, 2019-01-14">
  <metadata
     id="metadata27">
    <rdf:RDF>
      <cc:Work
         rdf:about="">
        <dc:format>image/svg+xml</dc:format>
        <dc:type
           rdf:resource="http://purl.org/dc/dcmitype/StillImage" />
        <dc:title>gitlab-icon-rgb</dc:title>
      </cc:Work>
    </rdf:RDF>
  </metadata>
  <sodipodi:namedview
     pagecolor="#232323"
     bordercolor="#666666"
     borderopacity="1"
     objecttolerance="10"
     gridtolerance="10"
     guidetolerance="10"
     inkscape:pageopacity="1"
     inkscape:pageshadow="2"
     inkscape:window-width="1920"
     inkscape:window-height="1016"
     id="namedview25"
     showgrid="false"
     inkscape:zoom="19.105797"
     inkscape:cx="14.34529"
     inkscape:cy="10.244049"
     inkscape:window-x="0"
     inkscape:window-y="27"
     inkscape:window-maximized="1"
     inkscape:current-layer="layer2" />
  <defs
     id="defs4">
    <style
       id="style2">.cls-1{fill:#fc6d26;}.cls-2{fill:#e24329;}.cls-3{fill:#fca326;}</style>
  </defs>
  <title
     id="title6">gitlab-icon-rgb</title>
  <g
     id="g9368"
     transform="matrix(0.0710947,0,0,0.0710947,-8.8305793,-7.871264)">
    <path
       style="fill:#000000"
       inkscape:connector-curvature="0"
       id="path46"
       class="cls-1"
       d="M 461.17,301.83 442.26,243.71 404.84,128.43 a 6.47,6.47 0 0 0 -12.27,0 L 355.15,243.64 H 230.82 L 193.4,128.43 a 6.46,6.46 0 0 0 -12.26,0 l -37.36,115.21 -18.91,58.19 a 12.88,12.88 0 0 0 4.66,14.39 L 293,435 456.44,316.22 a 12.9,12.9 0 0 0 4.73,-14.39" />
    <path
       style="fill:#333333"
       inkscape:connector-curvature="0"
       id="path58"
       class="cls-1"
       d="M 293,434.92 230.82,243.64 h -87 z" />
    <path
       style="fill:#333333"
       inkscape:connector-curvature="0"
       id="path78"
       class="cls-1"
       d="m 293.02,434.97 62.16,-191.28 h 87.14 z" />
  </g>
  <g
     inkscape:groupmode="layer"
     id="layer2"
     inkscape:label="Layer 2"
     style="display:inline">
    <path
       transform="matrix(0.0710947,0,0,0.0710947,-8.8305793,-7.871264)"
       style="fill:#666666"
       inkscape:connector-curvature="0"
       id="path66"
       class="cls-3"
       d="m 143.75,243.69 v 0 l -18.91,58.12 a 12.88,12.88 0 0 0 4.66,14.39 L 293,435 Z" />
    <path
       transform="matrix(0.0710947,0,0,0.0710947,-8.8305793,-7.871264)"
       style="fill:#666666"
       inkscape:connector-curvature="0"
       id="path82"
       class="cls-3"
       d="m 442.24,243.69 v 0 l 18.91,58.12 a 12.85,12.85 0 0 1 -4.66,14.39 L 293,434.91 442.2,243.69 Z" />
  </g>
  <g
     inkscape:groupmode="layer"
     id="layer1"
     inkscape:label="Layer 1"
     style="display:inline">
    <g
       transform="matrix(0.0710947,0,0,0.0710947,-8.8305793,-7.871264)"
       id="g48"
       style="fill:#000000">
      <path
         d="m 293,434.91 v 0 L 355.16,243.63 H 230.87 Z"
         class="cls-2"
         id="path50"
         inkscape:connector-curvature="0"
         style="fill:#000000" />
    </g>
    <g
       transform="matrix(0.0710947,0,0,0.0710947,-8.8305793,-7.871264)"
       id="g72"
       style="fill:#000000">
      <path
         d="m 143.78,243.69 h 87.11 L 193.4,128.49 a 6.47,6.47 0 0 0 -12.27,0 z"
         class="cls-2"
         id="path74"
         inkscape:connector-curvature="0"
         style="fill:#000000" />
    </g>
    <g
       transform="matrix(0.0710947,0,0,0.0710947,-8.8305793,-7.871264)"
       id="g84"
       style="fill:#000000">
      <path
         d="m 442.28,243.69 h -87.1 l 37.42,-115.2 a 6.46,6.46 0 0 1 12.26,0 z"
         class="cls-2"
         id="path86"
         inkscape:connector-curvature="0"
         style="fill:#000000" />
    </g>
  </g>
</svg>
