<?xml version="1.0" encoding="UTF-8" standalone="no"?>
<!-- Created with Inkscape (http://www.inkscape.org/) -->

<svg
   xmlns:dc="http://purl.org/dc/elements/1.1/"
   xmlns:cc="http://creativecommons.org/ns#"
   xmlns:rdf="http://www.w3.org/1999/02/22-rdf-syntax-ns#"
   xmlns:svg="http://www.w3.org/2000/svg"
   xmlns="http://www.w3.org/2000/svg"
   xmlns:sodipodi="http://sodipodi.sourceforge.net/DTD/sodipodi-0.dtd"
   xmlns:inkscape="http://www.inkscape.org/namespaces/inkscape"
   width="24"
   height="24"
   viewBox="0 0 6.48 6.48"
   version="1.1"
   id="svg8"
   inkscape:version="0.92.4 5da689c313, 2019-01-14"
   sodipodi:docname="text-x-makefile.svg">
  <defs
     id="defs2" />
  <sodipodi:namedview
     id="base"
     pagecolor="#232323"
     bordercolor="#666666"
     borderopacity="1.0"
     inkscape:pageopacity="1"
     inkscape:pageshadow="2"
     inkscape:zoom="22.4"
     inkscape:cx="9.8111264"
     inkscape:cy="13.641679"
     inkscape:document-units="px"
     inkscape:current-layer="layer1"
     showgrid="false"
     units="px"
     scale-x="0.27"
     inkscape:window-width="1920"
     inkscape:window-height="1016"
     inkscape:window-x="0"
     inkscape:window-y="27"
     inkscape:window-maximized="1" />
  <metadata
     id="metadata5">
    <rdf:RDF>
      <cc:Work
         rdf:about="">
        <dc:format>image/svg+xml</dc:format>
        <dc:type
           rdf:resource="http://purl.org/dc/dcmitype/StillImage" />
        <dc:title></dc:title>
      </cc:Work>
    </rdf:RDF>
  </metadata>
  <g
     inkscape:label="Layer 1"
     inkscape:groupmode="layer"
     id="layer1"
     transform="translate(0,-290.64999)">
    <g
       id="g13829"
       transform="matrix(0.04488659,0,0,0.04488659,3.1198883,280.71299)">
      <path
         d="m -44.797124,306.42668 c 0,-8.1e-4 -7.64478,1.69992 -7.64478,1.69992 0,0 4.50819,-7.00245 4.50819,-7.00245 0,0 5.16159,-11.71044 5.16159,-11.71044 0,0 -15.44562,-6.73326 -15.44562,-6.73326 0,0 -9.48591,-14.95206 -9.48591,-14.95206 0,0 -1.17558,-18.9216 -1.17558,-18.9216 0,0 7.17255,-14.89131 7.17255,-14.89131 0,0 14.9499,-9.19755 14.9499,-9.19755 0,0 18.605159,-0.97848 18.605159,-0.97848 0,0 11.34324,5.7132 11.34324,5.7132 0,0 6.42762,0.42255 6.42762,0.42255 0,0 -4.87863,4.5306 -4.87863,4.5306 0,0 -14.84973,-1.50012 -14.84973,-1.50012 0,0 -13.190039,3.55347 -13.190039,3.55347 0,0 -7.41366,8.49825 -7.41366,8.49825 0,0 -2.40192,11.91105 -2.40192,11.91105 0,0 4.89699,8.98074 4.89699,8.98074 0,0 6.712199,0.80028 6.712199,0.80028 0,0 23.86017,-23.72868 23.86017,-23.72868 0,0 12.5301602,-1.73475 12.5301602,-1.73475 0,0 12.40947,7.03107 12.40947,7.03107 0,0 5.5841398,-4.28517 5.5841398,-4.28517 0,0 8.29035,-2.82339 8.29035,-2.82339 0,0 10.156054,3.4425 10.156054,3.4425 0,0 16.97409,20.48895 16.97409,20.48895 0,0 6.156,1.14372 6.156,1.14372 0,0 5.103,-6.87744 5.103,-6.87744 0,0 -0.47763,-12.5496 -0.47763,-12.5496 0,0 -6.86124,-9.79263 -6.86124,-9.79263 0,0 -9.61713,-3.24837 -9.61713,-3.24837 0,0 -7.78032,1.35027 -7.78032,1.35027 0,0 -9.715684,-0.7695 -9.715684,-0.7695 0,0 -1.377,-3.06477 -1.377,-3.06477 0,0 8.046004,-3.159 8.046004,-3.159 0,0 6.453,-3.267 6.453,-3.267 0,0 9.882,-0.67078 9.882,-0.67078 0,0 14.553,5.66578 14.553,5.66578 0,0 10.233,14.175 10.233,14.175 0,0 1.323,20.115 1.323,20.115 0,0 -8.829,16.362 -8.829,16.362 0,0 -12.42,6.237 -12.42,6.237 0,0 0.324,4.779 0.324,4.779 0,0 3.456,0.432 3.456,0.432 0,0 -1.431,3.213 -1.431,3.213 0,0 -8.073,0.297 -8.073,0.297 0,0 -15.552,-6.885 -15.552,-6.885 0,0 2.241,9.342 2.241,9.342 0,0 7.641,0 7.641,0 0,0 2.268,7.911 2.268,7.911 0,0 -7.641,8.937 -7.641,8.937 0,0 4.131,4.914 4.131,4.914 0,0 -5.265,4.914 -5.265,4.914 0,0 -0.81,7.479 -0.81,7.479 0,0 -10.638004,3.132 -10.638004,3.132 0,0 2.592,8.37 2.592,8.37 0,0 -16.4969998,14.796 -16.4969998,14.796 0,0 -11.3265,-14.094 -11.3265,-14.094 0,0 -8.15994,-0.70065 -8.15994,-0.70065 0,0 2.32551,-8.36892 2.32551,-8.36892 0,0 -9.3155402,-4.27923 -9.3155402,-4.27923 0,0 0.16308,-6.31638 0.16308,-6.31638 0,0 -6.44841,-6.40764 -6.44841,-6.40764 l -5.09382,-17.64018 c 0,0 -16.657379,5.91219 -16.657379,5.91219 z"
         id="path2"
         style="fill:#ffffff;stroke-width:0.27000001"
         inkscape:connector-curvature="0" />
      <path
         style="stroke-width:0.27000001"
         d="m -38.994015,305.17712 c -0.98118,0.0667 -2.25855,0.50625 -3.11553,2.04228 -0.699569,1.25442 -2.338469,1.45449 -3.103649,1.20177 -1.27467,-0.4212 -2.90385,-0.71334 -4.482,0.41121 -1.57815,1.12428 -3.28239,0.27405 -2.9835,-1.77552 0.29889,-2.0493 1.03923,-3.87477 3.00429,-5.00526 4.29165,-2.46888 1.30896,-4.18716 3.66444,-6.66495 2.36007,-2.48265 1.8387,-3.24243 1.7604,-6.61419 -7.97661,-1.19826 -12.49749,-3.49731 -17.54568,-9.80451 -5.04819,-6.30747 -7.00515,-11.4993 -7.52841,-19.40706 -0.52326,-7.90776 -0.06966,-13.03263 3.34692,-19.5966 3.41658,-6.56397 7.01379,-9.72378 13.24755,-13.00131 6.23376,-3.27699 12.341699,-4.06188 17.987399,-3.9663 5.6457,0.0953 9.40761,0.50895 12.59766,2.32902 3.18978,1.82007 6.10794,4.11048 7.96824,4.12695 1.86057,0.0165 3.12714,-0.47088 4.03137,-1.1637 0.2413802,6.12981 -5.27553,6.66225 -10.21113,6.79185 -4.93587,0.12933 -7.96878,-1.91241 -12.51477,-1.1529 -4.54599,0.75951 -11.989079,2.82825 -15.614909,9.1395 -3.62583,6.31125 -3.74949,8.54226 -3.44817,13.8348 0.30132,5.29281 4.85676,9.24156 7.42824,9.28449 2.571209,0.0429 3.145229,-0.70173 5.395949,-2.16972 2.25099,-1.46826 13.74192,-15.69294 17.66286,-18.88812 3.92121,-3.19518 7.79058,-4.18176 11.9685602,-4.23306 4.17798,-0.0513 5.24556,0.0904 8.61515999,1.4715 3.36960001,1.38078 5.44023001,3.92391 8.15697001,5.47857 1.38861,-0.81729 2.25126,-2.03769 3.5253898,-2.96892 4.55679,-3.33045 6.92442,-4.22793 12.34035,-3.70089 3.11283,0.30294 7.03782,2.08116 9.379804,4.1175 4.17015,3.62583 7.61535,8.67375 10.39932,12.50856 2.16783,2.98647 4.71879,6.55965 8.36055,7.67664 3.97629,1.21905 6.96843,-3.93093 7.40772,-6.78753 0.24894,-1.61865 0.57375,-3.03723 0.57645,-4.81869 0.003,-1.78173 -0.17928,-3.94389 -0.69282,-5.80068 -0.51354,-1.85679 -1.3932,-3.7044 -2.34576,-5.23638 -1.55034,-2.49345 -4.08699,-5.10273 -6.72624,-6.44517 -1.48122,-0.7533 -4.96611,-2.12301 -7.16283,-2.17107 -2.69163,-0.0583 -4.74228,0.84591 -7.23087,1.01547 -3.01212,0.20547 -8.392684,0.88263 -10.754104,-1.4445 -1.50282,-1.48095 -1.69182,-2.46888 -1.94859,-4.39992 0.66393,0.54702 1.59246,0.90666 2.41893,0.97659 1.88622,0.1593 3.65229,-1.38078 5.17482,-2.27313 1.254154,-0.73521 3.030214,-2.04903 4.677484,-2.71296 4.23252,-1.7064 9.43164,-1.65726 13.8996,-1.20015 3.58128,0.36612 8.22447,1.95939 11.36538,3.7368 3.15576,1.78524 6.19677,4.79547 8.42427,7.63317 2.80233,3.57048 4.33431,6.6339 5.34924,11.08701 1.29735,5.68674 1.65699,14.22954 0.0886,19.83663 -1.23606,4.41855 -5.34033,11.20608 -8.83413,14.53329 -3.44574,3.28185 -7.42446,4.86594 -11.94912,5.73237 0.17712,0.91314 0.20628,1.76472 0.44037,2.51343 0.33264,1.06272 0.96876,2.24748 2.27556,1.87272 0.5211,-0.14931 0.80001,-0.27864 1.48716,0.32238 0.68661,0.60102 0.32913,2.92275 -1.60326,3.96468 -0.97983,0.52839 -2.01393,0.64314 -3.58317,0.67446 -1.56924,0.0313 -4.01841,0.0381 -5.72211,-0.26028 -1.70343,-0.29808 -2.72106,-1.64997 -4.60782,-1.86165 -2.91573,-0.32616 -5.14836,-2.4327 -7.48629,-3.9393 -0.97551,-0.62883 -1.30464,-0.63531 -1.86678,-0.9531 0.30375,0.92988 0.70875,1.89567 0.91071,2.78964 0.2025,0.89397 0.1161,1.72206 0.22356,2.43756 0.10692,0.71496 0.30537,1.27089 0.42093,1.85085 0.4671,0.41769 0.61641,1.053 1.40103,1.2528 0.78516,0.19953 2.01447,-0.11124 2.81772,-0.21924 0.80325,-0.108 1.34163,-0.54567 1.97181,-0.42579 0.63072,0.11961 1.22823,0.57105 1.75662,0.99414 0.52839,0.42309 0.98253,0.48492 1.41021,1.54062 0.42768,1.0557 0.81999,3.21759 0.87858,4.66263 0.0586,1.44504 -0.10341,2.74941 -0.53163,3.8961 -0.42822,1.14669 -0.8046,1.6551 -1.96425,2.79072 -1.15965,1.13589 -3.04803,2.8026 -4.93236,3.9636 0.34695,0.51381 0.50085,0.98415 1.04193,1.5417 0.54108,0.55782 1.66914,1.18287 2.17107,1.7712 0.50139,0.58833 0.75573,1.01034 0.76302,1.67022 0.008,0.65961 -0.0243,1.51713 -0.55998,2.23641 -1.33407,1.79091 -2.91195,2.11167 -4.83057,2.95407 0.32265,2.01474 0.5859,3.45411 0.11961,5.46588 -0.19035,0.81972 -0.61317,2.6784 -1.62432,3.15522 -1.01142,0.47682 -2.96163,0.24597 -4.196074,0.44199 -1.23444,0.19629 -1.92537,0.38259 -2.88765,0.57375 -0.58482,0.84537 -1.45557,1.77822 -1.75392,2.53584 -0.29889,0.75789 -0.20871,1.02951 0.04212,1.80333 0.25083,0.77382 1.10484,1.90053 1.34676,2.80665 0.24192,0.90612 0.2889,1.88163 0.06318,2.79018 -0.22626,0.90855 -0.61317,1.56789 -1.38753,2.37465 -0.77409,0.80703 -2.29716,1.44072 -3.05586,2.09466 -0.75924,0.65421 -1.51497,0.73278 -1.30788,1.81521 0.28485,1.48662 2.457,3.89772 4.0284,4.47174 0.94176,0.34425 2.2059,0.23571 3.34962,-0.24705 -0.07749,1.26981 -1.17639,2.12571 -1.89432,2.96892 1.94427,-0.55593 3.82968,-1.62027 5.133784,-3.03102 -0.40446,1.22526 -1.796044,3.19221 -3.877474,4.9194 -2.08143,1.72719 -2.06874,1.37376 -3.10338,2.06091 1.88784,0.37935 3.64338,0.27675 5.1057,0.014 -0.80163,0.44199 -2.11572,1.06353 -3.85641,1.24632 -1.74069,0.18252 -2.81394,0.0535 -4.38264,-0.32751 -1.56897,-0.38124 -3.00105,-1.80738 -4.90212,-2.79045 0.18522,0.70524 0.31698,1.55331 1.11645,2.27853 0.79947,0.72522 2.00907,1.09404 3.29481,1.72125 -1.63674,-0.18576 -3.35664,-0.24192 -4.96503,-0.59643 -1.1907,-0.26271 -1.99071,-0.54135 -2.862,-0.97281 -0.87075,-0.43146 -1.54305,-1.06083 -2.31444,-1.59111 0.36963,0.70605 0.47925,1.53657 1.10835,2.11869 0.6291,0.58212 1.65159,0.79893 2.4786,1.1988 -0.86265,-0.0189 -1.69236,0.16821 -2.5866,-0.0567 -0.89478,-0.22491 -1.7339398,-0.57834 -2.6640898,-1.2636 -0.93015,-0.68526 -1.88946,-1.52901 -2.68326,-2.39166 -0.79326,-0.86265 -1.77282,-1.98099 -2.06928,-2.77641 -0.297,-0.79569 0.1782,-1.35216 0.2673,-2.02743 -0.54783,0.35991 -1.22175,0.55809 -1.64268,1.08054 -0.42093,0.52245 -0.79407,0.99954 -0.60777,1.91025 0.18657,0.91071 1.02708,2.02392 1.62135,3.03696 -1.77336,-1.45017 -2.76372,-2.00853 -3.18573001,-3.75786 -0.39501,-1.63782 0.62694001,-3.12444 1.40373001,-4.36293 0.38583,-0.61506 0.96309,-1.18746 1.32381,-1.78119 -0.80109,-0.78381 -1.71666,-1.45746 -2.40327001,-2.35143 -0.68634,-0.8937 -0.9747,-2.1033 -1.67535,-2.95839 -0.70091999,-0.85536 -1.64375999,-1.39671 -2.46482999,-2.09412 0.72171,1.55034 1.90782,3.45195 2.1654,4.65183 0.25730999,1.19988 -0.28863,1.93428 -0.71442,2.58201 -0.42606,0.64773 -1.11348,0.79218 -1.76553,1.19016 -0.65205,0.39825 -1.66617,0.0842 -2.0547,0.67527 -0.38826,0.59076 -0.49248,1.4796 -0.12123,2.06496 l 1.5228,2.40354 c -0.56106,-0.28323 -1.52766,-1.107 -1.96344,-1.69128 -0.43578,-0.58428 -1.1043,-1.12401 -1.19583,-1.91403 -0.09153,-0.78975 -0.13608,-1.47528 0.37557,-2.1789 0.51192,-0.70335 1.91322,-0.93879 2.54043,-1.4796 0.62721,-0.54081 0.97902,-0.89289 0.94311,-1.59192 -0.03564,-0.69903 -0.71847,-1.19907 -1.30545,-1.63971 -1.79199,-1.34406 -4.09077,-2.58255 -5.6124902,-4.20255 -0.85968,-0.9153 -1.27224,-1.65429 -1.44504,-2.28582 -0.17253,-0.63126 0.01,-1.12374 0.43713,-1.90026 0.42714,-0.77679 1.8918902,-1.81386 2.0700902,-2.65761 0.17793,-0.84348 -0.56187,-1.02465 -1.2295802,-1.32219 -0.66771,-0.29754 -1.9359,0.15255 -2.55528,-0.36504 -0.61911,-0.51759 0.18198,-1.60515 -0.51597,-2.20158 -0.69768,-0.59643 -2.29473,-0.26352 -3.11904,-0.90504 -0.82431,-0.64179 -1.16505,-1.43829 -1.44909,-2.36925 -0.28404,-0.93096 -0.31617,-1.95075 -0.12366,-2.62494 0.19251,-0.67419 0.77085,-0.79218 1.11969,-1.14156 0.34884,-0.34938 0.65151,-0.63909 0.18657,-1.16019 -0.46494,-0.52083 -1.98855,0.0292 -2.86443,-0.63963 -0.87588,-0.66879 -0.33966,-2.2707 -0.95904,-2.94597 -0.61911,-0.67527 -1.73043,-0.41094 -2.31687,-0.62667 -0.58617,-0.21573 -0.81621,0.5454 -1.17585,-0.65826 -0.35964,-1.20393 -0.36936,-4.7925 -0.8532,-6.1317 -0.48384,-1.3392 -1.43397,-0.0904 -1.87515,-1.42155 -0.44118,-1.33083 -0.02295,-3.45924 -0.22167,-5.46939 l -0.90045,-5.46939 c -3.14118,2.11005 -5.21478,2.77263 -8.58951,3.36879 -0.28161,8.25714 -1.05732,13.11957 1.74528,22.2804 2.8026,9.16056 8.47449,14.55948 16.12602,22.31523 -10.09665,-7.56432 -14.91696,-13.71384 -17.93394,-21.5919 -3.01752,-7.87914 -2.4381,-14.46822 -2.13462,-22.05522 z m 53.65116,-3.31884 c 0.77679,0.0348 1.72071,0.23193 2.26611,0.58617 0.54567,0.35424 1.12482,0.64368 1.62,1.14777 1.23552,1.2582 2.16216,2.7756 2.57175,4.51926 0.26109,1.11159 0.29997,2.53719 0.39501,3.84237 -0.37395,-1.20636 -0.62532,-2.46429 -1.15803,-3.5451 -0.83997,-1.70424 -2.26692,-3.36771 -4.03893,-4.1337 -0.58482,-0.25326 -0.97497,-0.20628 -1.29681,-0.16146 0.14391,0.24165 0.38502,0.44415 0.39555,0.79812 0.01053,0.35397 -0.06858,1.04652 -0.66879,1.33758 -0.96768,0.46953 -2.04336,0.13932 -2.79072,-0.52137 -0.75357,-0.66582 -1.01034,-1.79226 -0.61587,-2.76021 0.47007,-1.15344 2.26125,-1.15641 3.32073,-1.10943 z m -9.7394398,-1.6416 c 0.09747,-1.98315 0.81324,-3.65553 2.59038,-4.62807 0.91908,-0.50274 2.33496,-1.1529 3.6360898,-1.30572 1.24983,-0.14661 4.29003,-0.0394 6.11874,0.79515 1.40427,0.64098 2.36088,1.6389 3.59397,2.36817 1.23282,0.72954 2.10978,1.21851 3.28374,2.03661 1.80198,1.25577 2.85822,2.63844 4.10751,3.46734 0.60075,0.39825 1.44585,0.33912 2.24343,0.58266 -0.62019,0.18414 -1.43073,0.38718 -2.09979,0.17334 -0.8343,-0.26676 -2.0007,-1.02951 -2.64789,-1.57626 -1.14372,-0.96606 -1.73664,-1.43748 -2.98485,-2.16621 -0.7452,-0.43416 -1.97235,-0.94581 -2.79126,-1.47987 -0.81945,-0.53406 -2.24181,-1.70586 -3.02913,-2.10249 -1.00089,-0.50382 -2.80287,-0.78408 -3.91716,-0.75141 -1.53522,0.0448 -3.7573198,0.29808 -4.9453198,1.37592 -1.18017,1.07136 -1.62837,2.01393 -1.36215,3.40524 0.44442,-0.51192 0.74034,-1.15506 1.18557,-1.53576 0.92232,-0.78786 1.98072,-0.82593 3.1287598,-0.67662 1.28979,0.16794 1.93914,0.91287 2.3652,2.13732 -0.28674,-0.2106 -0.81378,-0.67311 -1.22985,-0.81648 -0.97659,-0.33696 -1.71504,-0.23328 -2.6297998,0.25731 -1.08,0.57942 -0.78624,1.43694 -0.94176,2.39058 -0.07128,0.43983 -0.23733,0.79407 -0.35586,1.19124 -0.40608,-0.10746 -0.78165,-0.27648 -1.08891,-0.58104 0.01269,0.4455 -0.05211,0.83511 0.03915,1.33623 0.09072,0.50085 0.3348,1.09593 0.50193,1.64376 -0.75195,-0.75222 -1.52145,-1.4526 -2.00718,-2.42379 -0.48627,-0.97173 -0.81567,-2.05011 -0.76356,-3.11715 z m 1.3014,-14.4342 c 0.55431,-0.82269 0.71658,-2.08467 1.0584,-3.11067 -0.13662,1.29951 0.12609,2.72862 -0.50841,3.66984 -0.6345,0.94122 -1.74879,0.77625 -2.67192,1.05003 0.7182,-0.54756 1.56735,-0.78651 2.12193,-1.6092 z m -13.27077,19.26936 c 0.71172,-0.57618 2.6325,-0.11556 4.06917,-0.0127 -1.03248,0.26433 -2.06496,0.52893 -3.09744,0.79326 -0.09612,0.35127 -0.05265,0.75384 -0.28836,1.05327 -0.23598,0.2997 -0.68418,0.41067 -1.026,0.6156 0.03375,-0.92286 -0.36909,-1.87353 0.34263,-2.44944 z m 10.12257,-40.0194 c 0.85752,0.4617 1.94589,1.07217 2.70324,1.09107 0.75735,0.0189 0.95553,-0.49518 1.40103,-0.79191 0.70092,2.28555 1.50552,4.79682 2.69892,6.87069 0.5000398,0.86886 0.8189098,0.46494 1.1990698,1.33812 0.37962,0.87291 0.54837,2.64924 0.90855,3.76461 0.36072,1.11537 0.83106,1.93617 1.24659,2.90412 -1.05516,-1.49499 -2.41839,-3.40119 -3.00645,-4.64535 -0.5875198,-1.24389 -0.21141,-1.35216 -0.6871498,-2.53692 -0.47574,-1.18476 -1.43748,-3.03156 -2.15622,-4.54734 -0.51462,0.0683 -1.15182,0.162 -1.54305,0.0413 -0.39123,-0.12069 -0.3132,-0.53676 -0.66663,-0.80568 -0.35397,-0.26892 -0.94878,-0.1647 -1.4445,-0.594 -0.49572,-0.42903 -0.60858,-1.3095 -0.6534,-2.08872 z m -4.61727,11.27763 c 0.80702999,-0.0707 1.80926999,0.14553 2.565,0.1026 0.75573,-0.0429 1.29519,-0.23895 1.94292,-0.35856 -0.12015,-1.13832 -0.0062,-3.22974 -1.05705,-3.98979 -0.67878,-0.49086 -3.46653,-0.12123 -4.21119,0.0394 -1.67562,0.36126 -3.62691,1.36134 -5.24745,1.98666 1.55304,-1.08486 2.89467,-2.09034 4.7574,-2.65032 1.11969,-0.33669 3.73274999,-0.77436 4.88835,-0.46224 0.52758,0.14229 0.63423,0.36072 0.95418,0.80784 1.09998,1.53576 1.09674,2.86308 1.38213,4.6521 0.28053,0.43713 0.57942,0.72873 0.80676,1.17963 0.2268,0.4509 0.35532,1.16046 0.41877,1.74042 -0.28782,-0.41742 -0.11178,-0.94095 -0.90909,-1.25172 -0.79785,-0.31077 -2.01933,-0.0205 -3.0942,0.0918 0.78354,0.56538 1.17288,1.10997 1.20285,2.30526 0.0351,1.40346 -1.15317,2.41353 -2.39382001,2.50965 -1.72232999,0.13365 -2.61035999,-0.24462 -3.30695999,-1.71666 -0.3051,-0.64476 -0.08397,-1.42047 -0.10935,-2.04903 -2.06955,0.14391 -2.0358,0.0764 -3.54834,1.33758 0.82215,1.20447 1.34001,1.89702 2.69865,2.61765 0.76194,0.40446 1.62459,0.79758 2.56878,0.95823 0.94445999,0.16065 2.49345,0.3159 3.48543,0.16362 0.99225,-0.15228 1.55439,-0.43551 2.28987,-1.11564 0.73575,-0.6804 0.80325,-1.65456 1.09053,-2.4246 -0.06534,0.74115 -0.15039,1.68507 -0.42552,2.22264 -0.837,1.63431 -2.28447,2.11869 -4.01274,2.12409 -1.65888001,0.005 -3.71088,-0.37719 -5.2542,-1.01709 -1.2339,-0.51138 -3.27942,-1.95966 -3.76488,-3.21786 -0.33183,-0.85968 -0.06912,-1.91457 -0.10395,-2.87199 1.70856,-1.13616 2.13138,-0.85671 4.15287,-1.18935 0.84564,-0.13932 1.42722,-0.45333 2.23425,-0.52434 z m -9.9524702,-7.69527 c 0.04806,-0.68067 0.12339,-0.66609 0.18522,-0.99927 -1.55655,-0.41634 -2.18079,0.59346 -3.09339,2.46888 -0.34155,0.70173 -0.0035,1.11942 -0.3699,1.58139 -0.36585,0.46197 -0.95553,0.39717 -1.5498,0.84078 -0.59427,0.44334 -1.18314,1.29249 -1.7388,1.75176 -1.14021,0.94257 -2.68137,1.51794 -4.00383,2.15217 0.90315,-0.66636 2.65572,-1.67697 3.22272,-2.64519 0.30078,-0.51327 0.25623,-1.48122 0.72441,-1.94265 0.46791,-0.4617 0.6318,-0.78111 1.23606,-0.89883 0.60426,-0.11772 0.36126,-0.8181 0.5562,-1.37484 0.19494,-0.55674 0.5832,-0.95202 0.9963,-1.50822 0.4131,-0.5562 0.9342,-1.39131 1.74987,-1.69452 0.81567,-0.30348 2.08764,0.0246 2.70513,-0.15012 0.61722,-0.17469 0.26271,-0.62343 0.71118,-0.89289 0.4490102,-0.26946 1.3219202,-0.15066 1.9215902,-0.43875 1.06299,-0.51111 1.5714,-1.36431 2.21076,-2.27772 0.09288,1.96614 0.0702,3.38175 -0.63639,5.23152 -0.79569,2.08197 -1.60218,3.30831 -3.8604602,4.58865 -0.77814,0.44091 -1.5525,0.594 -2.19753,0.82539 0.37611,-0.513 0.91449,-0.73575 1.1286,-1.539 0.21357,-0.80379 0.054,-2.3976 0.10206,-3.07854 z m 36.46026,9.58689 c -1.07379,0.0699 -1.3284,-0.0713 -2.18754,0.5346 0.46575,0.72468 0.93123,1.44936 1.39644,2.17404 -0.04104,-1.43046 0.09828,-1.7172 0.7911,-2.70864 z m -2.8134,-1.0395 c 1.48716,-0.63342 2.78289,-1.14588 4.40073,-1.24713 0.64854,-0.0408 1.65537,0.0597 2.31039,0.0894 0.55782,-0.82134 1.26873,-1.46907 1.52928,-2.40651 0.172534,-0.62181 0.08748,-3.50784 -0.21789,-4.25709 -0.88965,-2.18052 -1.75446,-2.27259 -2.97891,-3.52161 -0.88857,-0.90585 -0.92394,-2.28528 -1.18962,-3.83103 -0.09747,-0.56781 -0.37611,-1.28628 -0.50679,-1.87218 -1.60056,-0.26973 -3.32181,-0.35856 -5.16321,-0.26649 0.89289,-0.85644 1.75608,-1.6389 2.01231,-2.92464 0.25569,-1.28574 0.04752,-2.86659 -0.68337,-4.01949 -0.73089,-1.1529 -1.89837,-2.1573 -2.97,-3.09663 -1.07217,-0.93933 -2.60874,-1.71477 -3.62448,-2.48319 1.32111,-0.47304 2.67003,-1.16802 3.96414,-1.41885 3.37122,-0.65394 6.27588,0.34614 9.52749,2.31201 1.89054,1.14345 3.454114,2.22966 5.430514,4.29867 1.97586,2.06874 4.42665,5.86359 6.3396,8.11404 1.91295,2.25045 3.45735,4.03029 5.12622,5.37246 1.66914,1.34244 3.17979,1.72476 4.76928,2.58687 l 2.47752,2.63088 2.00502,-2.48103 3.22623,0.36477 0.66663,-3.62124 2.96109,-0.81135 -0.48303,-4.8816 2.12895,-1.51092 -1.60002,-3.03723 1.62567,-3.31884 -2.1195,-3.79377 0.81729,-3.65283 -2.45376,-2.09115 -0.32022,-3.88179 -3.42306,-1.30572 -1.37322,-3.37716 -3.84858,-0.0432 -1.88784,-2.50695 -2.59092,0.18144 -2.88819,-0.31455 -1.63323,-1.20582 -2.37033,1.57356 -2.86821,-1.49553 -5.70159,2.16459 3.71682,-3.23244 3.85074,-0.61506 2.95002,-0.75195 3.98412,1.30842 3.50676,-0.8883 3.38121,1.99881 3.57804,-0.19791 1.7577,3.15387 3.56265,0.41121 1.92753,3.50649 2.24073,1.22337 0.59481,4.49199 1.99557,1.8927 -0.8775,3.93039 2.35089,2.97648 -2.20428,3.18924 2.3571,1.99341 -3.0132,2.67057 3.05181,3.17817 -3.6855,1.18854 2.40057,3.40875 -3.0105,0.51948 1.97424,3.74814 -3.39282,-0.0451 1.7091,2.80746 -3.72141,-0.44793 0.89019,4.03893 -2.81232,-2.47401 -0.96336,4.8951 -1.94076,-3.51486 -1.05111,4.38399 -2.39571,-3.23271 0.0653,4.59702 -2.64789,-4.13343 c 0.55836,2.34522 0.44658,4.91319 1.98693,7.12422 4.77252,-0.64584 7.89183,-1.84842 11.54817,-5.36679 3.33018,-3.20436 7.31052,-9.88551 8.38836,-14.12316 1.22985,-4.8357 1.26765,-13.7295 0.0564,-18.65268 -1.16586,-4.74012 -2.6811,-7.00434 -5.38839,-10.87236 -2.58768,-2.74833 -5.1327,-5.65164 -8.41698,-7.61157 -4.82112,-2.87685 -11.00304,-3.65256 -16.49754,-3.57777 -3.04236,0.0416 -5.08032,0.62586 -6.89931,1.28736 -3.18087,1.15668 -5.724814,3.67983 -8.958604,4.92669 -1.05462,0.40635 -1.89999,0.41904 -2.73051,-0.0246 0.81324,1.62702 1.69803,2.35683 3.72627,2.94894 1.46718,0.42822 4.968004,0.15741 7.378024,-0.0651 2.58714,-0.23895 3.9366,-1.00818 7.45767,-0.95985 3.43872,0.0473 6.16356,1.35351 7.65342,2.20536 3.07395,1.7577 5.27823,3.70764 7.19361,6.79644 1.05192,1.69614 1.78875,3.6099 2.30769,5.56281 0.51894,1.95291 0.74628,4.14018 0.77949,6.05205 0.0332,1.91187 -0.11286,3.61854 -0.5805,5.33898 -1.09377,4.02786 -3.50676,8.12646 -8.46342,7.49331 -3.03318,-0.38772 -7.6059,-6.08094 -9.13734,-8.16966 -3.09015,-4.21551 -6.26967,-8.8803 -10.15254,-12.39084 -2.367364,-2.13975 -5.608714,-3.61233 -8.791744,-3.90366 -5.97159,-0.54648 -7.74252,0.58779 -12.23748,4.29273 0.91449,0.2916 1.80711,0.45252 2.74428,0.8748 2.07981,0.93717 3.98196,2.14839 5.64111,3.70197 1.73853,1.62837 2.51856,2.65896 2.58039,4.99068 0.04104,1.54845 -1.23282,2.78991 -2.40057,3.90663 -0.71442,0.68391 -1.65996,1.31004 -2.23857,1.84086 -0.7668,0.70443 -1.71639,1.47501 -0.75303,2.59713 0.36234,0.42174 0.99144,0.7398 1.52199,1.13373 0.84213,0.62505 0.45657,2.94813 -0.65286,3.56427 -1.41966,0.78759 -3.11607,0.69957 -4.28679,-0.35478 1.47771,-0.22113 2.41623,-0.41715 2.37789,-1.62594 -0.02214,-0.70065 -0.91287,-1.28277 -1.78713,-1.68129 -2.10843,-0.9612 -3.7008898,-0.81945 -5.7993298,-2.32929 -2.1195,-1.52577 -2.16621,-2.36115 -2.73915,-4.75659 -1.02195,0.10692 -1.9629,0.13041 -3.32937,0.58293 -1.36647001,0.45225 -2.87658,1.52901 -4.11723,1.7955 -3.12444,0.6723 -3.74706,0.47304 -5.45697,0.0305 -3.0105002,-0.77922 -6.9303602,0.55485 -10.8243002,1.80036 -0.64746,0.20709 -3.26619,0.007 -5.02902,0.62559 -2.72268,0.95526 -6.54291,3.26862 -8.74935,5.12676 -3.34314,2.81583 -7.73658,11.2428 -10.218959,20.91528 -0.26082,2.9403 0.575369,4.92129 -1.27683,6.35742 -1.8522,1.43613 -1.8009,5.11542 -2.42892,6.14736 -0.62802,1.03167 -1.35513,0.57564 -2.70702,2.02473 -1.35189,1.44909 -2.04012,1.2069 -2.0061,3.94686 1.16505,-0.76599 2.86362,-1.65645 4.3551,-1.71018 1.32084,-0.0478 1.33488,1.69128 4.724999,-1.66023 1.81305,-1.79307 5.29632,-1.84788 7.71309,-2.63871 2.41704,-0.79083 6.77241,-2.42055 11.13453,-7.29729 4.36212,-4.87674 6.44949,-10.01079 7.2954,-17.43309 0.13473,1.31598 0.36855,2.80017 -0.19494,6.43032 -0.56349,3.63015 -1.77795,7.70742 0.78057,12.59118 l 1.59408,3.04263 c -0.94905,-1.29519 -2.80287,-3.40794 -3.36096,-4.91346 l -1.28736,-3.47301 c -2.88009,4.52196 -3.54213,5.33088 -7.54299,8.57061 -0.1593,2.00988 -0.19845,4.10616 0.45846,6.02937 0.65691,1.92294 -0.39015,4.13964 0.10962,5.40621 0.49977,1.26657 1.65564,0.54567 2.0331,1.8279 0.37746,1.28223 -0.1971,3.81726 0.38826,5.06709 0.58536,1.24983 2.02149,0.4914 2.71755,0.89505 0.69606,0.40392 0.92367,0.95742 1.296,1.48851 0.37206,0.53082 -0.14553,1.78578 0.61155,2.19321 0.75681,0.4077 1.93752,0.0624 2.72511,0.4536 0.78759,0.39123 0.9072,1.33164 0.71847,2.17431 -0.189,0.84267 -1.03059,1.22931 -1.40022,2.08602 -0.36936,0.85698 -0.32805,1.45341 0.11583,2.24019 0.44388,0.78705 1.42668,1.2204 2.40624,1.61757 0.97956,0.39717 2.35602,0.17415 3.3669,0.72333 1.0108802,0.54918 1.9194302,1.64349 2.4532202,2.43891 0.53379,0.79515 0.68202,1.35621 0.65475,2.1924 -0.02754,0.83592 -0.36666,1.79901 -0.81297,2.60658 -0.44631,0.80757 -1.431,1.79037 0.10638,3.33261 1.53738,1.54197 1.48068,0.87723 2.36142,1.87758 -0.09585,-1.73043 -0.81081,-3.1401 -0.28809,-4.44285 0.52299,-1.30275 2.09304,-1.52928 2.92059,-2.11518 0.82755,-0.58617 1.3041,-1.39131 1.95641999,-2.08683 -0.0095,0.89505 0.0864,1.85733 -0.01539,2.53125 -0.20735999,1.37025 -0.61181999,2.5866 1.43019,2.80638 0.91989001,0.0988 1.79334001,-0.49761 2.76129001,-0.85563 -0.50706,0.90801 -1.38888,1.63809 -1.52145,2.72484 -0.13257,1.08621 0.02673,2.27961 0.77895,3.35772 0.75249,1.07757 2.05173,1.87785 3.00375,2.51127 0.95175,0.63369 1.46178,0.68445 2.19321,1.02708 0.03591,1.06812 -0.17442,2.19861 -0.05265,3.20463 0.12177,1.00602 0.43875,1.89648 1.02033,2.72808 0.58212,0.83187 1.5155098,1.30896 2.3946298,1.92402 -0.48195,-1.12239 -1.4596198,-2.18727 -1.4463898,-3.36717 0.01323,-1.17963 0.3669298,-2.01582 1.5176698,-3.06261 1.15074,-1.04706 3.8448,-1.95507 5.11515,-2.97297 1.27035,-1.01817 1.68021,-1.64187 2.13624,-2.63034 0.45603,-0.98847 0.32913,-2.58093 0.41337,-3.4695 0.41823,1.2447 0.4779,1.63161 0.61371,2.93382 0.13662,1.30248 -0.75897,3.1293 -1.13805,4.09347 1.5714,-0.75897 2.56878,-1.97208 3.07233,-3.15765 0.33696,0.1998 0.16713,0.74763 0.29106,1.80333 0.55998,-0.55728 1.19664,-0.98604 1.7604,-1.512 0.5643,-0.52542 1.18233,-0.98766 1.46232,-1.72125 0.27945,-0.73359 0.16497,-1.51362 -0.0432,-2.36601 -0.20817,-0.85239 -1.16073,-1.84086 -1.67373,-2.77317 -0.51246,-0.93204 0.09072,-1.84707 0.05589,-2.97027 -1.02627,-0.17631 -1.89783,-0.69903 -3.07746,-0.5292 -1.18017,0.16956 -2.53179,1.49391 -3.73788,1.5093 -1.20609,0.0154 -1.88325,-1.11456 -2.87199,-1.42506 -0.98874,-0.3105 -1.98909,-0.27648 -2.98323,-0.41472 1.25928,-1.20636 6.14682,-1.78092 9.48996,-2.32605 2.94165,-0.47979 5.86089,-0.75708 8.84142,-0.79893 1.3311,-0.0189 3.041824,0.42066 3.966034,0.15498 0.92502,-0.26514 0.72765,-0.89505 1.00197,-1.58166 0.76734,-1.91916 0.38907,-3.62826 -0.0284,-5.56092 -2.6757,-0.31374 -5.463724,-0.69768 -8.159674,-0.49059 -2.63574,0.2025 -5.75694,1.45557 -8.47557,1.54035 -2.36358,0.0734 -5.86359,-0.45279 -7.8931798,-1.68993 -2.48022,-1.51173 -4.39911,-4.75848 -5.08032,-5.80095 -1.10943,-1.69803 -2.50884,-5.02929 -3.36042001,-6.55236 -0.85104,-1.52307 -1.03869,-1.94913 -1.7469,-2.58498 -0.70820999,-0.63558 -1.67831999,-0.68472 -2.51720999,-1.02735 0.96714,0.0988 2.02311,-0.20736 2.90168999,0.29646 1.32003,0.75735 2.79747001,3.89637 3.61881001,5.2623 0.87021,-2.91708 0.66717,-4.06404 3.18519,-5.70888 -2.02932,2.27448 -2.07981,3.99735 -2.57445,6.67521 1.6875,2.76966 4.03353,7.18146 7.1034298,8.40564 1.10889,0.44253 3.0132,0.72009 4.212,0.86832 3.73086,0.46197 7.32942,-0.72036 10.99359,-1.62513 2.6784,-0.6615 5.396224,-0.39501 8.653774,-0.20358 1.10592,0.0648 3.71358,-0.60048 4.25358,-1.71909 0.2916,-0.60345 0.27,-1.32867 -0.14877,-1.97181 -0.41931,-0.64314 -1.53603,-0.95418 -2.13462,-1.53306 -0.59859,-0.57888 -0.94284,-1.26603 -1.41426,-1.89918 -2.48805,0.47736 -4.53465,0.66069 -6.381454,0.71091 1.32462,-0.54567 2.595514,-0.85698 3.974134,-1.39617 1.37862,-0.53919 2.94408,-1.42425 4.05675,-2.15865 1.11267,-0.73467 1.82304,-1.16073 2.62818,-2.01555 0.8046,-0.85536 1.83681,-1.73637 2.43,-2.78181 0.59373,-1.04544 0.68553,-2.21481 0.71874,-3.50865 0.0332,-1.29357 -0.0227,-3.10878 -0.52164,-4.15098 -0.49842,-1.04193 -1.45962,-1.3581 -2.23182,-1.60461 -0.77247,-0.24651 -1.3014,0.37692 -2.10465,0.46116 -0.80379,0.0842 -1.55466,0.59076 -2.71674,0.0443 -1.16208,-0.54648 -2.53962,-1.65888 -3.71466,-3.30993 -1.174504,-1.65132 -2.014474,-4.35024 -3.211924,-6.42654 -2.06415,-3.57912 -4.63644,-6.92253 -7.09641,-10.23894 -0.2025,-0.81783 -0.50679,-1.94805 -0.60804,-3.05748 -0.17658,-1.9332 -0.20979,-3.94146 0.39015,-5.82606 0.45981,-1.44369 1.1286,-2.96865 2.64033,-3.56076 0.6048,-0.23706 1.36998,-0.33102 1.91052,-0.13068 0.54108,0.20007 1.07163,0.81054 0.85914,1.51578 -0.23355,0.77544 -0.77085,0.7965 -1.13589,1.188 -0.61965,0.6642 -0.86751,1.15155 -1.1016,1.97964 0.6696,-0.0108 1.57464,-0.0618 2.12463,0.0829 0.71766,0.189 1.38591,0.66474 1.75014,1.68156 -0.85644,-0.75951 -1.28196,-1.10808 -2.35089,-1.13508 -0.48978,-0.0122 -1.08486,0.16308 -1.62675,0.24462 -0.2025,0.6588 -0.32157,1.46664 -0.6075,1.9764 -0.28593,0.50976 -0.84267,0.38745 -1.05165,0.98307 -0.20898,0.59454 -0.22113,1.56276 -0.11583,2.34441 z m 7.48305,-0.89289 c 0.32805,0.12933 0.45306,0.15768 0.868594,0.47385 0.41553,0.31617 0.98874,0.6318 1.31787,1.38726 0.32967,0.75573 0.31428,1.92429 0.24408,2.4003 -0.2889,-0.0848 -0.68283,-0.0275 -0.98253,-0.28377 -0.29889,-0.25623 -0.47736,-0.83646 -0.860764,-1.08486 -0.38394,-0.24813 -0.70389,-0.19386 -1.12806,-0.24759 0.21789,0.61992 0.32373,1.24011 0.22248,1.80225 -0.21978,1.22715 -0.94122,1.84869 -2.10924,1.99557 -0.51003,0.064 -1.32003,-0.10395 -1.76391,-0.18468 0.20574,0.45954 0.55431,0.86211 0.76032,1.32165 0.98766,-0.14283 1.71963,-0.12258 2.25072,-0.37098 0.53109,-0.2484 1.10052,-0.80487 1.782,-1.04058 0.681754,-0.23571 1.289794,-0.23193 2.035534,-0.3483 -0.58752,0.50625 -0.97308,1.01277 -1.55979,1.51902 0.43038,1.25091 0.86076,2.50155 1.29087,3.75219 0.91233,0.57078 1.76823,0.87156 2.91789,1.57626 1.1502,0.70497 2.52909,1.96587 4.02678,2.65356 1.49769,0.68769 2.3895,1.06191 3.95442,1.35702 1.56465,0.29511 2.80962,1.56249 4.34943,1.7685 1.53981,0.20601 4.41585,0.24759 5.6025,0.13176 1.3473,-0.13149 3.09771,-0.82674 3.25485,-2.30391 -1.12968,0.27864 -2.85498,0.0286 -3.72627,-2.09709 -0.38664,-0.94392 -0.1971,-2.67975 -0.78894,-3.79593 -0.59157,-1.11645 -1.41642,-1.47474 -2.40192,-2.85012 -0.9855,-1.37538 -2.59767,-3.54483 -3.50271,-5.38758 -0.9045,-1.84248 -1.11753,-3.92958 -1.88271,-5.58063 -0.76518,-1.65078 -1.91943,-2.98431 -2.81394,-4.25682 -1.95318,-2.781 -3.52836,-4.68153 -6.74622,-6.08445 -1.54764,-0.67473 -3.30966,-0.85455 -4.964494,-1.28196 -0.67338,0.30159 -1.59678,0.63477 -1.76067,1.42236 -0.16389,0.78759 0.15093,1.95075 0.72252,2.54205 0.95661,0.98847 2.374114,2.05686 2.931394,3.62799 0.35802,1.00818 0.46197,4.38804 0.15174,5.30523 -0.32184,0.95229 -1.070014,1.5282 -1.691824,2.16243 z m 0.31158,7.99983 c -0.29889,0.25785 -0.52677,0.52272 -1.00764,0.73683 -0.48033,0.21411 -1.13643,0.26946 -1.7739,0.42876 0.89397,1.39158 1.83303,2.79774 2.68947,4.26087 0.856984,1.46286 1.599484,3.06477 2.417314,4.59675 -0.0386,-0.87804 0.0132,-1.81413 -0.11448,-2.63466 -0.12771,-0.82026 -0.4995,-1.53819 -0.86805,-2.76966 -0.36801,-1.23147 -0.821074,-2.90682 -1.342714,-4.61889 z M 5.8897052,253.67165 c -0.12609,1.3689 0.10557,3.50892 0.38907,4.8492 0.33966,1.60434 0.66663,2.43621 1.96857,3.40281 2.3840998,1.76985 3.9060898,1.4715 5.7401998,2.49777 0.87264,0.48843 1.97856,1.30707 2.30121,2.17242 0.32265,0.86535 -0.21303,1.80495 -0.8748,2.17431 1.15749,0.17226 2.45538,-1.13265 1.91376,-2.47239 -0.26676,-0.65934 -1.53657,-0.9531 -1.92591,-1.61838 -0.38853,-0.66501 -0.38772,-1.34973 -0.20466,-2.02527 0.33075,-1.2177 2.73996,-2.32416 3.59127,-3.28671 1.31004,-1.48122 1.81305,-2.72025 1.07109,-4.6278 -1.04193,-2.67975 -5.06736,-4.83003 -7.47657,-5.88168 -1.10322,-0.48141 -1.72179,-0.5157 -2.5822798,-0.77355 1.7617498,1.03248 3.6190798,1.8549 4.5103498,4.16286 0.74412,1.92753 0.09963,2.65383 0.12447,4.33215 0.01161,0.77814 1.03626,1.16721 1.49121,1.65888 0.39609,0.42741 0.36396,0.74466 0.04752,1.33461 -0.03483,-0.53217 -0.26217,-0.92934 -0.67068,-1.21851 -0.67446,-0.47817 -1.40103,-0.3753 -1.7604,-1.35567 -0.5454,-1.4904 0.53622,-2.90196 -0.67986,-4.57542 -0.90963,-1.25199 -2.1195,-2.65329 -3.7516498,-2.69001 -0.77247,-0.0175 -1.35324,0.0991 -2.17836,0.34317 l -1.09998,-1.32381 -0.02538,-0.0173 c -2.23749,-2.04201 -3.76839,-3.72492 -6.90714,-5.12838 -3.13875,-1.40319 -4.68558,-1.61568 -8.28441,-1.53576 -3.5988302,0.0797 -7.1703902,0.3807 -11.3386502,3.97521 -4.16799,3.59451 -14.91048,17.35884 -17.51571,19.10088 -2.60496,1.74204 -3.18195,2.33226 -6.437069,2.33307 -3.25512,8.1e-4 -8.33544,-4.6035 -8.53443,-10.35774 -0.19926,-5.75451 -0.27918,-7.79976 3.72087,-14.73201 4.00032,-6.93252 11.247119,-9.0612 16.623899,-9.77994 5.37705,-0.71874 8.60814,1.17504 12.58551,1.18395 3.9771,0.009 7.90776,-0.67743 9.06687,-3.84048 -0.56727,0.33777 -1.32732,0.71847 -3.46464,0.60642 -2.13732,-0.11205 -5.10084,-2.5866 -8.43453,-4.24467 -3.33369,-1.6578 -7.04349,-1.85193 -11.8017,-1.94184 -4.75821,-0.0899 -10.695509,0.27378 -16.577729,3.44925 -5.88222,3.17547 -9.89739,6.5448 -13.30911,12.75966 -3.41172,6.21513 -3.92148,11.28951 -3.37149,18.81468 0.54999,7.52517 2.87091,13.12173 7.33968,18.62946 4.46877,5.50773 8.93484,8.2026 16.98786,9.20457 l 1.695329,-7.47792 -3.026429,4.34322 0.07479,-4.83057 -2.73753,3.39687 -1.20069,-4.60674 -2.21778,3.69333 -1.1016,-5.1435 -3.21381,2.59929 1.01736,-4.24413 -4.2525,0.47061 1.95345,-2.95002 -3.87747,0.0473 2.25612,-3.93849 -3.44034,-0.54621 2.7432,-3.58209 -4.212,-1.24875 3.48732,-3.33936 -3.44331,-2.80611 2.69325,-2.09466 -2.51856,-3.35124 2.6865,-3.12741 -1.00278,-4.12992 2.28123,-1.98855 0.67905,-4.71987 2.56014,-1.28574 2.20266,-3.68442 4.07133,-0.43227 2.0088,-3.31398 4.08915,0.20817 3.864239,-2.10033 4.00761,0.93339 4.5522,-1.37484 3.37149,0.79002 4.39992,0.64665 4.24791,3.3966 -6.51591,-2.27448 -3.2778,1.57167 -2.70945,-1.65375 -1.86543,1.26711 -3.30075,0.33048 -2.96001,-0.19116 -2.15784,2.63412 -4.398569,0.0454 -1.56897,3.54861 -3.91122,1.37214 -0.36585,4.07889 -2.80476,2.19726 0.93447,3.83832 -2.42217,3.98655 1.85814,3.48705 -1.82871,3.1914 2.43297,1.5876 -0.55188,5.12946 3.38364,0.85266 0.76221,3.80511 3.68712,-0.38313 2.29068,2.60712 2.831219,-2.76453 c 5.16132,-2.57364 7.28676,-4.01328 11.30922,-8.36379 4.57893,-4.95261 7.20333,-9.53154 13.30263,-12.92247 4.37454,-2.43216 7.9425902,-3.3075 12.8565902,-2.45835 4.61375999,0.79704 6.1587,3.56454 9.55665,6.48 0.36018,-0.65205 0.43335,-0.82485 1.02681,-1.30491 -0.1863,0.84672 -0.48222,1.72503 -0.55755,2.53935 z"
         id="path4"
         inkscape:connector-curvature="0" />
    </g>
  </g>
</svg>
