<?xml version="1.0" encoding="UTF-8" standalone="no"?>
<!-- Created with Inkscape (http://www.inkscape.org/) -->

<svg
   xmlns:osb="http://www.openswatchbook.org/uri/2009/osb"
   xmlns:dc="http://purl.org/dc/elements/1.1/"
   xmlns:cc="http://creativecommons.org/ns#"
   xmlns:rdf="http://www.w3.org/1999/02/22-rdf-syntax-ns#"
   xmlns:svg="http://www.w3.org/2000/svg"
   xmlns="http://www.w3.org/2000/svg"
   xmlns:xlink="http://www.w3.org/1999/xlink"
   xmlns:sodipodi="http://sodipodi.sourceforge.net/DTD/sodipodi-0.dtd"
   xmlns:inkscape="http://www.inkscape.org/namespaces/inkscape"
   width="128"
   height="128"
   viewBox="0 0 33.866666 33.866668"
   version="1.1"
   id="svg8"
   inkscape:version="0.92.4 5da689c313, 2019-01-14"
   sodipodi:docname="com.raggesilver.Proton.svg">
  <defs
     id="defs2">
    <linearGradient
       inkscape:collect="always"
       id="linearGradient6726">
      <stop
         style="stop-color:#2f6db8;stop-opacity:1"
         offset="0"
         id="stop6722" />
      <stop
         style="stop-color:#003a85;stop-opacity:1"
         offset="1"
         id="stop6724" />
    </linearGradient>
    <linearGradient
       inkscape:collect="always"
       id="linearGradient6716">
      <stop
         style="stop-color:#2f6db8;stop-opacity:1"
         offset="0"
         id="stop6712" />
      <stop
         style="stop-color:#15539e;stop-opacity:1"
         offset="1"
         id="stop6714" />
    </linearGradient>
    <inkscape:path-effect
       effect="powerstroke"
       id="path-effect6702"
       is_visible="true"
       offset_points="0,0.13229167"
       sort_points="true"
       interpolator_type="CubicBezierJohan"
       interpolator_beta="0.2"
       start_linecap_type="zerowidth"
       linejoin_type="extrp_arc"
       miter_limit="4"
       end_linecap_type="zerowidth" />
    <inkscape:path-effect
       effect="bspline"
       id="path-effect6680"
       is_visible="true"
       weight="33.333333"
       steps="2"
       helper_size="0"
       apply_no_weight="true"
       apply_with_weight="true"
       only_selected="false" />
    <inkscape:path-effect
       effect="bspline"
       id="path-effect6672"
       is_visible="true"
       weight="33.333333"
       steps="2"
       helper_size="0"
       apply_no_weight="true"
       apply_with_weight="true"
       only_selected="false" />
    <linearGradient
       inkscape:collect="always"
       id="linearGradient6627">
      <stop
         style="stop-color:#333333;stop-opacity:1;"
         offset="0"
         id="stop6623" />
      <stop
         id="stop6632"
         offset="0.49928662"
         style="stop-color:#333333;stop-opacity:1" />
      <stop
         style="stop-color:#1a1a1a;stop-opacity:1"
         offset="1"
         id="stop6625" />
    </linearGradient>
    <linearGradient
       id="linearGradient6008"
       osb:paint="solid">
      <stop
         style="stop-color:#dcdcdc;stop-opacity:1;"
         offset="0"
         id="stop6006" />
    </linearGradient>
    <linearGradient
       inkscape:collect="always"
       xlink:href="#linearGradient6627"
       id="linearGradient6629"
       x1="-66.713577"
       y1="261.67712"
       x2="-45.546913"
       y2="288.13547"
       gradientUnits="userSpaceOnUse" />
    <linearGradient
       inkscape:collect="always"
       xlink:href="#linearGradient6716"
       id="linearGradient6718"
       x1="-45.382874"
       y1="264.78607"
       x2="-45.217499"
       y2="284.28909"
       gradientUnits="userSpaceOnUse" />
    <linearGradient
       inkscape:collect="always"
       xlink:href="#linearGradient6726"
       id="linearGradient6728"
       x1="15.503421"
       y1="290.02307"
       x2="31.146645"
       y2="283.01303"
       gradientUnits="userSpaceOnUse"
       gradientTransform="matrix(1.0357202,0,0,1.0357202,-0.55378474,-10.110592)" />
  </defs>
  <sodipodi:namedview
     id="base"
     pagecolor="#ffffff"
     bordercolor="#666666"
     borderopacity="1.0"
     inkscape:pageopacity="0"
     inkscape:pageshadow="2"
     inkscape:zoom="8"
     inkscape:cx="34.254763"
     inkscape:cy="37.220957"
     inkscape:document-units="px"
     inkscape:current-layer="layer1"
     showgrid="false"
     units="px"
     showguides="false"
     inkscape:window-width="3840"
     inkscape:window-height="2010"
     inkscape:window-x="0"
     inkscape:window-y="0"
     inkscape:window-maximized="1" />
  <metadata
     id="metadata5">
    <rdf:RDF>
      <cc:Work
         rdf:about="">
        <dc:format>image/svg+xml</dc:format>
        <dc:type
           rdf:resource="http://purl.org/dc/dcmitype/StillImage" />
        <dc:title />
      </cc:Work>
    </rdf:RDF>
  </metadata>
  <g
     inkscape:label="Layer 1"
     inkscape:groupmode="layer"
     id="layer1"
     transform="translate(0,-263.13332)">
    <g
       id="g1567">
      <path
         id="rect6586"
         d="m -65.787536,261.67712 h 19.314583 c 0.513027,0 0.926042,0.41302 0.926042,0.92605 v 24.60625 c 0,0.51302 -0.413015,0.92604 -0.926042,0.92604 h -19.314583 c -0.513027,0 -0.926041,-0.41302 -0.926041,-0.92604 v -24.60625 c 0,-0.51303 0.413014,-0.92605 0.926041,-0.92605 z"
         style="fill:url(#linearGradient6629);fill-opacity:1;stroke:none;stroke-width:0;stroke-miterlimit:4;stroke-dasharray:none;stroke-opacity:1"
         transform="rotate(-15)" />
      <g
         style="fill:#f2f2f2"
         transform="matrix(-0.04044124,-0.0108362,-0.0108362,0.04044124,25.032722,275.38944)"
         id="g6584">
        <g
           style="fill:#f2f2f2"
           id="g6523">
          <g
             style="fill:#f2f2f2"
             id="g6521">
            <g
               style="fill:#f2f2f2"
               id="g6515">
              <g
                 style="fill:#f2f2f2"
                 id="g6513" />
            </g>
            <g
               style="fill:#f2f2f2"
               id="g6519" />
          </g>
        </g>
        <g
           style="fill:#f2f2f2"
           id="g6525" />
        <g
           style="fill:#f2f2f2"
           id="g6527" />
        <g
           style="fill:#f2f2f2"
           id="g6529" />
        <g
           style="fill:#f2f2f2"
           id="g6531" />
        <g
           style="fill:#f2f2f2"
           id="g6533" />
        <g
           style="fill:#f2f2f2"
           id="g6535" />
        <g
           style="fill:#f2f2f2"
           id="g6537" />
        <g
           style="fill:#f2f2f2"
           id="g6539" />
        <g
           style="fill:#f2f2f2"
           id="g6541" />
        <g
           style="fill:#f2f2f2"
           id="g6543" />
        <g
           style="fill:#f2f2f2"
           id="g6545" />
        <g
           style="fill:#f2f2f2"
           id="g6547" />
        <g
           style="fill:#f2f2f2"
           id="g6549" />
        <g
           style="fill:#f2f2f2"
           id="g6551" />
        <g
           style="fill:#f2f2f2"
           id="g6553" />
      </g>
      <path
         d="m 16.727896,279.29995 c -0.08849,0.0237 -0.140641,0.11404 -0.11693,0.20253 l 0.119838,0.44724 -0.447243,0.11984 c -0.08849,0.0237 -0.140642,0.11404 -0.116931,0.20253 0.02371,0.0885 0.114039,0.14064 0.20253,0.11693 l 0.447243,-0.11984 0.119839,0.44725 c 0.02371,0.0885 0.114039,0.14064 0.202529,0.11693 0.08849,-0.0237 0.140642,-0.11404 0.116931,-0.20253 l -0.119839,-0.44725 0.447244,-0.11983 c 0.08849,-0.0237 0.140641,-0.11404 0.11693,-0.20253 -0.02371,-0.0885 -0.114039,-0.14065 -0.202529,-0.11693 l -0.447244,0.11983 -0.119838,-0.44724 c -0.02371,-0.0885 -0.114039,-0.14064 -0.20253,-0.11693 z m -6.22144,-0.8103 c 0.09516,-0.38944 0.361438,-0.71721 0.791253,-0.97429 5.4e-5,-2e-4 2.39e-4,-8.9e-4 2.39e-4,-8.9e-4 0.08847,-0.33016 0.429,-0.52677 0.759405,-0.43824 0.05589,0.015 0.109235,0.0375 0.158653,0.0677 0.238478,-0.0639 0.494328,-0.11413 0.761892,-0.15019 0.178262,-0.0239 0.37809,-0.042 0.606809,-0.0553 -0.01329,-1.74793 0.472348,-2.90311 1.342418,-3.17992 0.912124,-0.29125 2.081753,0.49439 3.12715,2.11832 1.716677,-0.8831 3.121559,-0.98077 3.767353,-0.27095 0.391377,0.42927 0.474177,1.09343 0.241419,1.92505 0.117818,0.15155 0.15992,0.34982 0.109478,0.53807 -0.06372,0.2378 -0.260505,0.41089 -0.49753,0.44994 -0.05943,0.11892 -0.128028,0.24648 -0.207917,0.3861 1.414768,0.8789 2.102412,1.86897 1.891304,2.73158 -0.189582,0.77531 -1.067328,1.30675 -2.470943,1.49579 -0.17939,0.0245 -0.380364,0.0426 -0.610674,0.0556 0.0026,0.2287 -0.0021,0.43016 -0.01411,0.61319 -0.09345,1.41332 -0.563975,2.32478 -1.325111,2.56711 -0.916331,0.29013 -2.082636,-0.49627 -3.126977,-2.11897 -1.240678,0.6384 -2.326616,0.88048 -3.069317,0.68195 -0.284181,-0.0761 -0.519082,-0.21407 -0.698398,-0.41062 -0.537809,-0.59017 -0.489365,-1.61473 0.136367,-2.88542 0.06147,-0.12475 0.134262,-0.26085 0.220478,-0.41195 -1.415912,-0.87964 -2.104541,-1.87041 -1.893237,-2.73374 z m 8.242514,7.28321 c 0.484478,-0.15405 0.817689,-0.90665 0.890908,-2.013 0.01063,-0.16195 0.01493,-0.3435 0.01269,-0.55159 -0.614685,-6e-4 -1.272893,-0.0534 -1.960859,-0.1581 -0.444795,0.33676 -0.891991,0.63751 -1.331952,0.89637 0.845009,1.30107 1.775433,2.02114 2.389211,1.82632 z m 2.611513,-9.7463 c -0.433183,-0.47301 -1.600008,-0.31698 -2.982384,0.38744 0.240938,0.42501 0.468265,0.88578 0.676408,1.37253 0.680386,0.23584 1.306683,0.50547 1.865409,0.80372 0.05638,-0.1004 0.110478,-0.2012 0.163099,-0.30522 -0.115891,-0.15081 -0.157884,-0.34949 -0.107724,-0.53669 0.06389,-0.23844 0.263379,-0.41272 0.499153,-0.45163 0.11426,-0.42723 0.170068,-0.95855 -0.113961,-1.27015 z m -1.729592,6.55781 c -0.02573,-0.36241 -0.0713,-0.73863 -0.136156,-1.1231 -0.222474,0.22755 -0.451826,0.44923 -0.684808,0.66147 -0.14107,0.12887 -0.286855,0.25672 -0.440324,0.38608 0.441716,0.0486 0.864016,0.074 1.261288,0.0755 z m -0.04297,-3.3661 c 0.09607,0.30228 0.183758,0.60752 0.261407,0.91076 0.270416,-0.32996 0.517541,-0.66455 0.738742,-0.99993 -0.376468,-0.19988 -0.785344,-0.38702 -1.221645,-0.55885 0.07897,0.21565 0.152882,0.43255 0.221496,0.64802 z m -0.244494,1.48883 c -0.09926,-0.4434 -0.21713,-0.87978 -0.350544,-1.29956 -0.115421,-0.36286 -0.252345,-0.73881 -0.406886,-1.11922 -0.372227,-0.12236 -0.751067,-0.23072 -1.139238,-0.32528 -0.365934,-0.0896 -0.73706,-0.16685 -1.103293,-0.22892 -0.307719,0.24124 -0.599278,0.48656 -0.867501,0.73085 -0.325176,0.29668 -0.645821,0.61626 -0.953225,0.95048 0.09994,0.44973 0.217349,0.88785 0.349334,1.30327 0.116101,0.36469 0.252581,0.74052 0.406739,1.11896 0.372143,0.12186 0.750592,0.2299 1.139737,0.3252 0.364924,0.0898 0.73567,0.16669 1.103238,0.22912 0.308218,-0.24133 0.599462,-0.48725 0.867259,-0.73091 0.321592,-0.29319 0.642379,-0.61394 0.95438,-0.95399 z m -4.844575,0.84916 c -0.07893,-0.21659 -0.153547,-0.43346 -0.221698,-0.64807 -0.09567,-0.301 -0.183703,-0.60772 -0.262217,-0.91566 -0.27325,0.3318 -0.522448,0.66701 -0.74303,1.00186 0.377777,0.20114 0.788728,0.38927 1.226945,0.56187 z m 0.556537,-3.55248 c 0.142613,-0.13009 0.288358,-0.25796 0.44062,-0.38621 -0.438765,-0.0483 -0.859667,-0.0736 -1.256884,-0.0753 0.0259,0.36176 0.07086,0.73686 0.134445,1.11977 0.218237,-0.22322 0.446531,-0.44353 0.681819,-0.65824 z m -0.837878,-1.08568 c 0.614863,9.1e-4 1.27174,0.0543 1.955891,0.1582 0.444795,-0.33676 0.891789,-0.63756 1.331832,-0.89593 -0.844965,-1.30123 -1.778335,-2.02001 -2.389304,-1.82677 -0.576293,0.18337 -0.908479,1.1371 -0.898419,2.5645 z m 3.377645,0.43821 c 0.117,0.0288 0.233292,0.0585 0.348104,0.0893 0.104258,0.0279 0.20763,0.0566 0.309765,0.0863 -0.135101,-0.28326 -0.276842,-0.55582 -0.424335,-0.81484 -0.267723,0.15717 -0.536415,0.32847 -0.802619,0.51248 0.201645,0.0411 0.390017,0.0833 0.569085,0.12678 z m 3.544934,2.08927 c -0.308729,0.47036 -0.684532,0.95598 -1.118502,1.44679 0.118621,0.58677 0.197107,1.14814 0.233137,1.67173 0.20734,-0.0119 0.387972,-0.0288 0.549569,-0.0503 1.09893,-0.14805 1.827073,-0.53125 1.947744,-1.0256 0.13968,-0.56966 -0.46101,-1.3273 -1.611948,-2.04261 z m -4.870521,3.32426 c -0.222732,-0.0547 -0.442811,-0.11324 -0.657869,-0.17558 0.135102,0.28326 0.27699,0.55608 0.424162,0.81549 0.266849,-0.15649 0.53554,-0.32779 0.80294,-0.51287 -0.204273,-0.0418 -0.390229,-0.0833 -0.569233,-0.12704 z m -1.459038,-0.42961 c -0.680654,-0.23566 -1.308358,-0.50619 -1.869323,-0.80595 -0.07884,0.13847 -0.145286,0.26236 -0.201891,0.37688 -0.489686,0.99428 -0.577863,1.81254 -0.235331,2.1884 0.43369,0.4755 1.600572,0.31666 2.982644,-0.38663 -0.240591,-0.42453 -0.467538,-0.88493 -0.676099,-1.3727 z m -2.080945,-1.65695 c 0.313132,-0.47788 0.686739,-0.96341 1.113589,-1.44689 -0.11862,-0.58322 -0.197675,-1.14521 -0.234303,-1.67369 -0.208605,0.0122 -0.385751,0.0284 -0.547858,0.0501 -0.190628,0.026 -0.373645,0.0597 -0.54628,0.10048 -0.0021,0.0414 -0.0086,0.0821 -0.01924,0.12193 -0.08841,0.32996 -0.429188,0.5265 -0.758906,0.43816 -0.09281,-0.0249 -0.177611,-0.0709 -0.248433,-0.13402 -0.204742,0.14908 -0.330677,0.31641 -0.375144,0.49903 -0.140182,0.56991 0.462182,1.32826 1.61657,2.04493 z m 4.50256,-1.73812 c 0.616325,0.16514 0.983403,0.80123 0.818248,1.4176 -0.165208,0.61657 -0.8011,0.9837 -1.417424,0.81855 -0.616568,-0.1652 -0.9837,-0.8011 -0.818491,-1.41766 0.165144,-0.61633 0.8011,-0.9837 1.417667,-0.81849 z"
         style="fill:#2f6db8;fill-opacity:1;stroke:none;stroke-width:0;stroke-miterlimit:4;stroke-dasharray:none;stroke-opacity:1"
         id="rect6592" />
      <path
         inkscape:connector-curvature="0"
         id="path6704"
         d="m 31.755379,285.91744 -16.251958,4.3547 15.592919,-7.19221 z"
         style="fill:url(#linearGradient6728);fill-opacity:1;stroke:none;stroke-width:0.48480102px;stroke-linecap:butt;stroke-linejoin:miter;stroke-opacity:1" />
      <path
         id="rect6634"
         d="m -47.708439,264.70453 h 4.543813 v 19.68986 h -4.543813 z"
         style="fill:url(#linearGradient6718);fill-opacity:1;stroke:none;stroke-width:0;stroke-miterlimit:4;stroke-dasharray:none;stroke-opacity:1"
         transform="rotate(-15)" />
    </g>
  </g>
</svg>
